<?xml version="1.0" standalone="no"?>
<!DOCTYPE svg PUBLIC "-//W3C//DTD SVG 20010904//EN"
 "http://www.w3.org/TR/2001/REC-SVG-20010904/DTD/svg10.dtd">
<svg version="1.0" xmlns="http://www.w3.org/2000/svg"
 width="16" height="16" viewBox="0 0 16 16"
 preserveAspectRatio="xMidYMid meet"
 fill="none">
<metadata>
Created by potrace 1.10, written by Peter Selinger 2001-2011
</metadata>
<g transform="translate(0.000000,171.000000) scale(0.100000,-0.100000)"
fill="#000000" stroke="none">
<path d="M51 1688 c-1 -23 -6 -28 -28 -29 -24 -2 -25 -2 -5 -6 12 -2 22 -11
22 -18 0 -7 -10 -16 -22 -18 -20 -4 -19 -4 5 -6 22 -1 27 -6 27 -26 0 -20 -5
-25 -27 -26 -24 -2 -25 -2 -5 -6 29 -6 29 -30 0 -36 -20 -4 -19 -4 5 -6 22 -1
27 -6 27 -26 0 -20 -5 -25 -27 -26 -24 -2 -25 -2 -6 -6 30 -6 30 -30 1 -36
-20 -4 -19 -4 5 -6 22 -1 27 -6 27 -26 0 -20 -5 -25 -27 -26 -17 -1 -21 -3
-11 -6 10 -2 18 -11 18 -18 0 -7 -8 -16 -18 -18 -10 -3 -6 -5 11 -6 22 -1 27
-6 27 -26 0 -14 -5 -25 -11 -25 -6 0 -9 -9 -6 -19 3 -15 -1 -21 -17 -24 -17
-3 -15 -5 7 -6 22 -1 27 -6 27 -26 0 -14 -5 -25 -11 -25 -6 0 -8 -8 -4 -19 4
-15 0 -21 -17 -24 -20 -4 -20 -4 5 -6 22 -1 27 -6 27 -25 0 -14 -5 -28 -11
-31 -6 -4 -8 -13 -5 -20 3 -8 -4 -15 -17 -18 -18 -4 -17 -5 6 -6 19 -1 27 -6
27 -19 0 -27 -23 -71 -40 -76 -8 -2 -3 -4 13 -5 22 -1 27 -6 27 -26 0 -20 5
-25 25 -25 20 0 25 -5 25 -25 0 -18 -7 -26 -25 -31 -15 -4 -25 -13 -25 -24 0
-11 -4 -21 -10 -25 -5 -3 -7 -12 -4 -19 3 -8 -2 -16 -13 -19 -14 -4 -14 -5 5
-6 17 -1 22 4 22 24 0 20 5 25 26 25 22 0 25 -4 22 -27 -2 -20 -9 -29 -25 -31
-33 -5 -31 -42 2 -42 20 0 25 5 25 25 0 20 5 25 25 25 20 0 25 -5 25 -25 0
-20 5 -25 25 -25 20 0 25 5 25 25 0 20 5 25 25 25 20 0 25 -5 25 -25 0 -20 5
-25 25 -25 20 0 25 -5 25 -25 0 -20 5 -25 25 -25 33 0 35 37 3 42 -17 2 -24
11 -26 30 -3 24 0 28 22 28 21 0 26 -5 26 -25 0 -20 5 -25 25 -25 20 0 25 5
25 25 0 20 5 25 25 25 20 0 25 5 25 25 0 20 5 25 26 25 22 0 25 -4 22 -27 -2
-20 -9 -29 -25 -31 -33 -5 -31 -42 2 -42 20 0 25 5 25 25 0 20 5 25 25 25 20
0 25 -5 25 -25 0 -20 5 -25 25 -25 20 0 25 5 25 25 0 20 5 25 25 25 20 0 25 5
25 26 0 20 -4 25 -22 22 -19 -2 -24 2 -26 25 -3 23 0 27 21 27 20 0 23 4 19
25 -3 16 -11 25 -23 25 -14 0 -19 7 -19 25 0 20 5 25 24 25 19 0 24 6 29 38 4
20 4 54 0 75 -4 29 -2 37 10 37 8 0 17 11 19 25 4 19 1 25 -13 25 -14 0 -19 7
-19 25 0 20 5 25 24 25 13 0 27 -6 29 -12 3 -7 3 4 0 25 -4 28 -2 37 9 37 8 0
29 23 46 50 29 46 30 50 12 50 -15 0 -20 7 -20 25 0 20 5 25 25 25 17 0 25 -6
25 -17 0 -15 2 -16 10 -3 6 10 6 16 0 18 -6 2 -10 15 -10 28 0 19 5 24 24 24
13 0 27 -6 29 -12 3 -7 3 4 0 26 -6 38 -6 39 23 34 28 -4 30 -2 26 24 -4 24
-1 28 21 28 14 0 27 -5 29 -12 3 -9 6 -9 12 0 4 7 2 12 -3 12 -6 0 -11 11 -11
25 0 20 5 25 24 25 14 0 26 -6 28 -14 3 -13 6 -13 22 0 19 14 19 14 -2 14 -17
0 -22 6 -22 25 0 20 5 25 25 25 18 0 25 -5 25 -20 0 -11 5 -20 10 -20 6 0 19
9 30 20 11 11 29 20 40 20 15 0 20 7 20 25 0 20 5 25 24 25 13 0 26 -4 28 -10
2 -6 20 -4 48 4 35 10 46 18 48 37 3 23 3 23 -11 5 -14 -19 -14 -19 -25 0 -10
17 -11 17 -12 -8 0 -23 -4 -28 -25 -28 -20 0 -25 5 -26 28 -1 16 -3 20 -6 10
-2 -10 -11 -18 -18 -18 -7 0 -16 8 -18 18 -3 10 -5 6 -6 -10 -1 -23 -6 -28
-26 -28 -20 0 -25 5 -26 28 -1 16 -3 20 -6 10 -2 -10 -11 -18 -18 -18 -7 0
-16 8 -18 18 -3 10 -5 6 -6 -10 -1 -23 -6 -28 -26 -28 -20 0 -25 5 -26 28 -1
16 -3 20 -6 10 -2 -10 -11 -18 -18 -18 -7 0 -16 8 -18 18 -3 10 -5 6 -6 -10
-1 -23 -6 -28 -26 -28 -20 0 -25 5 -26 28 -1 16 -3 20 -6 10 -2 -10 -11 -18
-18 -18 -7 0 -16 8 -18 18 -3 10 -5 6 -6 -10 -1 -23 -6 -28 -26 -28 -20 0 -25
5 -26 28 -1 16 -3 20 -6 10 -2 -10 -11 -18 -18 -18 -7 0 -16 8 -18 18 -3 10
-5 6 -6 -10 -1 -23 -6 -28 -26 -28 -20 0 -25 5 -26 28 -1 16 -3 20 -6 10 -2
-10 -11 -18 -18 -18 -7 0 -16 8 -18 18 -3 10 -5 6 -6 -10 -1 -23 -6 -28 -26
-28 -20 0 -25 5 -26 28 -1 16 -3 20 -6 10 -2 -10 -11 -18 -18 -18 -7 0 -16 8
-18 18 -3 10 -5 6 -6 -10 -1 -23 -6 -28 -26 -28 -20 0 -25 5 -26 28 -1 16 -3
20 -6 10 -2 -10 -11 -18 -18 -18 -7 0 -16 8 -18 18 -3 10 -5 6 -6 -10 -1 -23
-6 -28 -26 -28 -20 0 -25 5 -26 28 -1 16 -3 20 -6 10 -2 -10 -11 -18 -18 -18
-7 0 -16 8 -18 18 -3 10 -5 6 -6 -10 -1 -23 -6 -28 -26 -28 -20 0 -25 5 -26
28 -1 16 -3 20 -6 10 -2 -10 -11 -18 -18 -18 -7 0 -16 8 -18 18 -3 10 -5 6 -6
-10 -1 -23 -6 -28 -26 -28 -20 0 -25 5 -26 28 -1 16 -3 20 -6 10 -6 -23 -30
-23 -36 0 -3 10 -5 6 -6 -10 -1 -23 -6 -28 -26 -28 -20 0 -25 5 -26 28 -1 16
-3 20 -6 10 -2 -10 -11 -18 -18 -18 -7 0 -16 8 -18 18 -3 10 -5 6 -6 -10z m49
-53 c0 -20 -5 -25 -25 -25 -20 0 -25 5 -25 25 0 20 5 25 25 25 20 0 25 -5 25
-25z m100 0 c0 -20 -5 -25 -25 -25 -20 0 -25 5 -25 25 0 20 5 25 25 25 20 0
25 -5 25 -25z m100 0 c0 -20 -5 -25 -25 -25 -20 0 -25 5 -25 25 0 20 5 25 25
25 20 0 25 -5 25 -25z m100 0 c0 -20 -5 -25 -25 -25 -20 0 -25 5 -25 25 0 20
5 25 25 25 20 0 25 -5 25 -25z m100 0 c0 -20 -5 -25 -25 -25 -20 0 -25 5 -25
25 0 20 5 25 25 25 20 0 25 -5 25 -25z m100 0 c0 -20 -5 -25 -25 -25 -20 0
-25 5 -25 25 0 20 5 25 25 25 20 0 25 -5 25 -25z m100 0 c0 -20 -5 -25 -25
-25 -20 0 -25 5 -25 25 0 20 5 25 25 25 20 0 25 -5 25 -25z m100 0 c0 -20 -5
-25 -25 -25 -20 0 -25 5 -25 25 0 20 5 25 25 25 20 0 25 -5 25 -25z m100 0 c0
-20 -5 -25 -25 -25 -20 0 -25 5 -25 25 0 20 5 25 25 25 20 0 25 -5 25 -25z
m100 0 c0 -20 -5 -25 -25 -25 -20 0 -25 5 -25 25 0 20 5 25 25 25 20 0 25 -5
25 -25z m100 0 c0 -20 -5 -25 -25 -25 -20 0 -25 5 -25 25 0 20 5 25 25 25 20
0 25 -5 25 -25z m-950 -50 c0 -20 -5 -25 -25 -25 -20 0 -25 5 -25 25 0 20 5
25 25 25 20 0 25 -5 25 -25z m100 0 c0 -20 -5 -25 -25 -25 -20 0 -25 5 -25 25
0 20 5 25 25 25 20 0 25 -5 25 -25z m100 0 c0 -20 -5 -25 -25 -25 -20 0 -25 5
-25 25 0 20 5 25 25 25 20 0 25 -5 25 -25z m100 0 c0 -20 -5 -25 -25 -25 -20
0 -25 5 -25 25 0 20 5 25 25 25 20 0 25 -5 25 -25z m100 0 c0 -20 -5 -25 -25
-25 -20 0 -25 5 -25 25 0 20 5 25 25 25 20 0 25 -5 25 -25z m100 0 c0 -20 -5
-25 -25 -25 -20 0 -25 5 -25 25 0 20 5 25 25 25 20 0 25 -5 25 -25z m100 0 c0
-20 -5 -25 -25 -25 -20 0 -25 5 -25 25 0 20 5 25 25 25 20 0 25 -5 25 -25z
m100 0 c0 -20 -5 -25 -25 -25 -20 0 -25 5 -25 25 0 20 5 25 25 25 20 0 25 -5
25 -25z m100 0 c0 -20 -5 -25 -25 -25 -20 0 -25 5 -25 25 0 20 5 25 25 25 20
0 25 -5 25 -25z m-850 -50 c0 -20 -5 -25 -25 -25 -20 0 -25 5 -25 25 0 20 5
25 25 25 20 0 25 -5 25 -25z m100 0 c0 -20 -5 -25 -25 -25 -20 0 -25 5 -25 25
0 20 5 25 25 25 20 0 25 -5 25 -25z m100 0 c0 -20 -5 -25 -25 -25 -20 0 -25 5
-25 25 0 20 5 25 25 25 20 0 25 -5 25 -25z m100 0 c0 -20 -5 -25 -25 -25 -20
0 -25 5 -25 25 0 20 5 25 25 25 20 0 25 -5 25 -25z m100 0 c0 -20 -5 -25 -25
-25 -20 0 -25 5 -25 25 0 20 5 25 25 25 20 0 25 -5 25 -25z m100 0 c0 -20 -5
-25 -25 -25 -20 0 -25 5 -25 25 0 20 5 25 25 25 20 0 25 -5 25 -25z m100 0 c0
-20 -5 -25 -25 -25 -20 0 -25 5 -25 25 0 20 5 25 25 25 20 0 25 -5 25 -25z
m100 0 c0 -20 -5 -25 -25 -25 -20 0 -25 5 -25 25 0 20 5 25 25 25 20 0 25 -5
25 -25z m100 0 c0 -20 -5 -25 -25 -25 -20 0 -25 5 -25 25 0 20 5 25 25 25 20
0 25 -5 25 -25z m-750 -50 c0 -20 -5 -25 -25 -25 -20 0 -25 5 -25 25 0 20 5
25 25 25 20 0 25 -5 25 -25z m100 0 c0 -20 -5 -25 -25 -25 -20 0 -25 5 -25 25
0 20 5 25 25 25 20 0 25 -5 25 -25z m100 0 c0 -20 -5 -25 -25 -25 -20 0 -25 5
-25 25 0 20 5 25 25 25 20 0 25 -5 25 -25z m100 0 c0 -20 -5 -25 -25 -25 -20
0 -25 5 -25 25 0 20 5 25 25 25 20 0 25 -5 25 -25z m100 0 c0 -20 -5 -25 -25
-25 -20 0 -25 5 -25 25 0 20 5 25 25 25 20 0 25 -5 25 -25z m100 0 c0 -20 -5
-25 -25 -25 -20 0 -25 5 -25 25 0 20 5 25 25 25 20 0 25 -5 25 -25z m100 0 c0
-20 -5 -25 -25 -25 -20 0 -25 5 -25 25 0 20 5 25 25 25 20 0 25 -5 25 -25z
m100 0 c0 -20 -5 -25 -25 -25 -20 0 -25 5 -25 25 0 20 5 25 25 25 20 0 25 -5
25 -25z m-750 -50 c0 -20 -5 -25 -25 -25 -20 0 -25 5 -25 25 0 20 5 25 25 25
20 0 25 -5 25 -25z m100 0 c0 -20 -5 -25 -25 -25 -20 0 -25 5 -25 25 0 20 5
25 25 25 20 0 25 -5 25 -25z m100 0 c0 -20 -5 -25 -25 -25 -20 0 -25 5 -25 25
0 20 5 25 25 25 20 0 25 -5 25 -25z m100 0 c0 -20 -5 -25 -25 -25 -20 0 -25 5
-25 25 0 20 5 25 25 25 20 0 25 -5 25 -25z m100 0 c0 -20 -5 -25 -25 -25 -20
0 -25 5 -25 25 0 20 5 25 25 25 20 0 25 -5 25 -25z m100 0 c0 -20 -5 -25 -25
-25 -20 0 -25 5 -25 25 0 20 5 25 25 25 20 0 25 -5 25 -25z m100 0 c0 -20 -5
-25 -25 -25 -20 0 -25 5 -25 25 0 20 5 25 25 25 20 0 25 -5 25 -25z m100 0 c0
-20 -5 -25 -25 -25 -20 0 -25 5 -25 25 0 20 5 25 25 25 20 0 25 -5 25 -25z
m-650 -50 c0 -20 -5 -25 -25 -25 -20 0 -25 5 -25 25 0 20 5 25 25 25 20 0 25
-5 25 -25z m100 0 c0 -20 -5 -25 -25 -25 -20 0 -25 5 -25 25 0 20 5 25 25 25
20 0 25 -5 25 -25z m100 0 c0 -20 -5 -25 -25 -25 -20 0 -25 5 -25 25 0 20 5
25 25 25 20 0 25 -5 25 -25z m100 0 c0 -20 -5 -25 -25 -25 -20 0 -25 5 -25 25
0 20 5 25 25 25 20 0 25 -5 25 -25z m100 0 c0 -20 -5 -25 -25 -25 -20 0 -25 5
-25 25 0 20 5 25 25 25 20 0 25 -5 25 -25z m100 0 c0 -20 -5 -25 -25 -25 -20
0 -25 5 -25 25 0 20 5 25 25 25 20 0 25 -5 25 -25z m100 0 c0 -20 -5 -25 -25
-25 -20 0 -25 5 -25 25 0 20 5 25 25 25 20 0 25 -5 25 -25z m-650 -50 c0 -20
-5 -25 -25 -25 -20 0 -25 5 -25 25 0 20 5 25 25 25 20 0 25 -5 25 -25z m100 0
c0 -20 -5 -25 -25 -25 -20 0 -25 5 -25 25 0 20 5 25 25 25 20 0 25 -5 25 -25z
m100 0 c0 -20 -5 -25 -25 -25 -20 0 -25 5 -25 25 0 20 5 25 25 25 20 0 25 -5
25 -25z m100 0 c0 -20 -5 -25 -25 -25 -20 0 -25 5 -25 25 0 20 5 25 25 25 20
0 25 -5 25 -25z m100 0 c0 -20 -5 -25 -25 -25 -20 0 -25 5 -25 25 0 20 5 25
25 25 20 0 25 -5 25 -25z m100 0 c0 -20 -5 -25 -25 -25 -20 0 -25 5 -25 25 0
20 5 25 25 25 20 0 25 -5 25 -25z m100 0 c0 -20 -5 -25 -25 -25 -20 0 -25 5
-25 25 0 20 5 25 25 25 20 0 25 -5 25 -25z m-550 -50 c0 -20 -5 -25 -25 -25
-20 0 -25 5 -25 25 0 20 5 25 25 25 20 0 25 -5 25 -25z m100 0 c0 -20 -5 -25
-25 -25 -20 0 -25 5 -25 25 0 20 5 25 25 25 20 0 25 -5 25 -25z m100 0 c0 -20
-5 -25 -25 -25 -20 0 -25 5 -25 25 0 20 5 25 25 25 20 0 25 -5 25 -25z m100 0
c0 -20 -5 -25 -25 -25 -20 0 -25 5 -25 25 0 20 5 25 25 25 20 0 25 -5 25 -25z
m100 0 c0 -20 -5 -25 -25 -25 -20 0 -25 5 -25 25 0 20 5 25 25 25 20 0 25 -5
25 -25z m100 0 c0 -20 -5 -25 -25 -25 -20 0 -25 5 -25 25 0 20 5 25 25 25 20
0 25 -5 25 -25z m100 0 c0 -20 -5 -25 -25 -25 -20 0 -25 5 -25 25 0 20 5 25
25 25 20 0 25 -5 25 -25z m-650 -49 c0 -15 -7 -26 -19 -29 -25 -6 -31 0 -31
30 0 18 5 23 25 23 20 0 25 -5 25 -24z m100 -1 c0 -20 -5 -25 -25 -25 -20 0
-25 5 -25 25 0 20 5 25 25 25 20 0 25 -5 25 -25z m100 0 c0 -20 -5 -25 -25
-25 -20 0 -25 5 -25 25 0 20 5 25 25 25 20 0 25 -5 25 -25z m100 0 c0 -20 -5
-25 -25 -25 -20 0 -25 5 -25 25 0 20 5 25 25 25 20 0 25 -5 25 -25z m100 0 c0
-20 -5 -25 -25 -25 -20 0 -25 5 -25 25 0 20 5 25 25 25 20 0 25 -5 25 -25z
m100 0 c0 -20 -5 -25 -25 -25 -20 0 -25 5 -25 25 0 20 5 25 25 25 20 0 25 -5
25 -25z m100 0 c0 -20 -5 -25 -25 -25 -20 0 -25 5 -25 25 0 20 5 25 25 25 20
0 25 -5 25 -25z m-550 -50 c0 -20 -5 -25 -25 -25 -20 0 -25 5 -25 25 0 20 5
25 25 25 20 0 25 -5 25 -25z m100 0 c0 -20 -5 -25 -25 -25 -20 0 -25 5 -25 25
0 20 5 25 25 25 20 0 25 -5 25 -25z m100 0 c0 -20 -5 -25 -25 -25 -20 0 -25 5
-25 25 0 20 5 25 25 25 20 0 25 -5 25 -25z m100 1 c0 -25 -15 -36 -37 -29 -7
3 -13 16 -13 29 0 19 5 24 25 24 20 0 25 -5 25 -24z m100 -1 c0 -20 -5 -25
-25 -25 -20 0 -25 5 -25 25 0 20 5 25 25 25 20 0 25 -5 25 -25z m100 0 c0 -20
-5 -25 -25 -25 -20 0 -25 5 -25 25 0 20 5 25 25 25 20 0 25 -5 25 -25z m-550
-49 c0 -25 -15 -36 -37 -29 -7 3 -13 16 -13 29 0 19 5 24 25 24 20 0 25 -5 25
-24z m100 -1 c0 -20 -5 -25 -25 -25 -20 0 -25 5 -25 25 0 20 5 25 25 25 20 0
25 -5 25 -25z m100 0 c0 -20 -5 -25 -25 -25 -20 0 -25 5 -25 25 0 20 5 25 25
25 20 0 25 -5 25 -25z m100 0 c0 -20 -5 -25 -25 -25 -20 0 -25 5 -25 25 0 20
5 25 25 25 20 0 25 -5 25 -25z m100 0 c0 -20 -5 -25 -25 -25 -20 0 -25 5 -25
25 0 20 5 25 25 25 20 0 25 -5 25 -25z m100 0 c0 -20 -5 -25 -25 -25 -20 0
-25 5 -25 25 0 20 5 25 25 25 20 0 25 -5 25 -25z m-450 -49 c0 -25 -15 -36
-37 -29 -7 3 -13 16 -13 29 0 19 5 24 25 24 20 0 25 -5 25 -24z m100 0 c0 -25
-15 -36 -37 -29 -7 3 -13 16 -13 29 0 19 5 24 25 24 20 0 25 -5 25 -24z m100
0 c0 -25 -15 -36 -37 -29 -7 3 -13 16 -13 29 0 19 5 24 25 24 20 0 25 -5 25
-24z m100 0 c0 -15 -7 -26 -19 -29 -25 -6 -31 0 -31 30 0 18 5 23 25 23 20 0
25 -5 25 -24z m100 0 c0 -25 -15 -36 -37 -29 -7 3 -13 16 -13 29 0 19 5 24 25
24 20 0 25 -5 25 -24z m100 0 c0 -25 -15 -36 -37 -29 -7 3 -13 16 -13 29 0 19
5 24 25 24 20 0 25 -5 25 -24z m-550 -49 c0 -13 -3 -27 -7 -31 -5 -4 -8 -13
-8 -18 0 -6 -6 -13 -14 -16 -10 -3 -12 0 -8 11 3 9 2 19 -3 22 -6 4 -10 17
-10 31 0 19 5 24 25 24 20 0 25 -5 25 -23z m100 -2 c0 -20 -5 -25 -25 -25 -20
0 -25 5 -25 25 0 20 5 25 25 25 20 0 25 -5 25 -25z m100 0 c0 -20 -5 -25 -25
-25 -20 0 -25 5 -25 25 0 20 5 25 25 25 20 0 25 -5 25 -25z m100 0 c0 -20 -5
-25 -25 -25 -20 0 -25 5 -25 25 0 20 5 25 25 25 20 0 25 -5 25 -25z m100 0 c0
-20 -5 -25 -25 -25 -20 0 -25 5 -25 25 0 20 5 25 25 25 20 0 25 -5 25 -25z
m100 0 c0 -20 -5 -25 -25 -25 -20 0 -25 5 -25 25 0 20 5 25 25 25 20 0 25 -5
25 -25z m-450 -50 c0 -20 -5 -25 -25 -25 -20 0 -25 -5 -25 -24 0 -13 -6 -26
-12 -29 -23 -7 -38 4 -38 29 0 19 5 24 25 24 20 0 25 5 25 25 0 20 5 25 25 25
20 0 25 -5 25 -25z m100 0 c0 -20 -5 -25 -25 -25 -20 0 -25 5 -25 25 0 20 5
25 25 25 20 0 25 -5 25 -25z m100 0 c0 -20 -5 -25 -25 -25 -20 0 -25 5 -25 25
0 20 5 25 25 25 20 0 25 -5 25 -25z m100 0 c0 -20 -5 -25 -25 -25 -20 0 -25 5
-25 25 0 20 5 25 25 25 20 0 25 -5 25 -25z m100 0 c0 -20 -5 -25 -25 -25 -20
0 -25 5 -25 25 0 20 5 25 25 25 20 0 25 -5 25 -25z m100 0 c0 -20 -5 -25 -25
-25 -20 0 -25 5 -25 25 0 20 5 25 25 25 20 0 25 -5 25 -25z m-450 -50 c0 -20
-5 -25 -25 -25 -20 0 -25 5 -25 25 0 20 5 25 25 25 20 0 25 -5 25 -25z m100 0
c0 -20 -5 -25 -25 -25 -20 0 -25 5 -25 25 0 20 5 25 25 25 20 0 25 -5 25 -25z
m100 0 c0 -20 -5 -25 -25 -25 -20 0 -25 5 -25 25 0 20 5 25 25 25 20 0 25 -5
25 -25z m100 0 c0 -20 -5 -25 -25 -25 -20 0 -25 5 -25 25 0 20 5 25 25 25 20
0 25 -5 25 -25z m100 0 c0 -20 -5 -25 -25 -25 -20 0 -25 5 -25 25 0 20 5 25
25 25 20 0 25 -5 25 -25z m-452 -52 c-2 -20 -9 -28 -23 -28 -14 0 -21 8 -23
28 -3 23 0 27 23 27 23 0 26 -4 23 -27z m100 0 c-2 -20 -9 -28 -23 -28 -14 0
-21 8 -23 28 -3 23 0 27 23 27 23 0 26 -4 23 -27z m100 0 c-2 -20 -9 -28 -23
-28 -14 0 -21 8 -23 28 -3 23 0 27 23 27 23 0 26 -4 23 -27z m100 0 c-4 -39
-42 -39 -46 0 -3 23 0 27 23 27 23 0 26 -4 23 -27z m100 0 c-4 -39 -42 -39
-46 0 -3 23 0 27 23 27 23 0 26 -4 23 -27z m-350 -50 c-4 -39 -42 -39 -46 0
-3 23 0 27 23 27 23 0 26 -4 23 -27z m100 0 c-2 -20 -9 -28 -23 -28 -14 0 -21
8 -23 28 -3 23 0 27 23 27 23 0 26 -4 23 -27z m100 0 c-4 -39 -42 -39 -46 0
-3 23 0 27 23 27 23 0 26 -4 23 -27z m102 3 c0 -24 -23 -41 -41 -30 -5 3 -9
16 -9 30 0 19 5 24 25 24 20 0 25 -5 25 -24z m98 -3 c-4 -39 -42 -39 -46 0 -3
23 0 27 23 27 23 0 26 -4 23 -27z m-450 -50 c-2 -20 -9 -28 -23 -28 -14 0 -21
8 -23 28 -3 23 0 27 23 27 23 0 26 -4 23 -27z m100 0 c-2 -20 -9 -28 -23 -28
-14 0 -21 8 -23 28 -3 23 0 27 23 27 23 0 26 -4 23 -27z m100 0 c-2 -20 -9
-28 -23 -28 -14 0 -21 8 -23 28 -3 23 0 27 23 27 23 0 26 -4 23 -27z m102 3
c0 -14 -4 -27 -9 -30 -18 -11 -41 6 -41 30 0 19 5 24 25 24 20 0 25 -5 25 -24z
m98 -3 c-4 -39 -42 -39 -46 0 -3 23 0 27 23 27 23 0 26 -4 23 -27z m-350 -50
c-4 -39 -42 -39 -46 0 -3 23 0 27 23 27 23 0 26 -4 23 -27z m102 3 c0 -14 -4
-27 -9 -30 -18 -11 -41 6 -41 30 0 19 5 24 25 24 20 0 25 -5 25 -24z m98 -3
c-4 -39 -42 -39 -46 0 -3 23 0 27 23 27 23 0 26 -4 23 -27z m200 0 c-4 -39
-42 -39 -46 0 -3 23 0 27 23 27 23 0 26 -4 23 -27z"/>
<path d="M1350 1693 c0 -9 8 -13 22 -11 31 4 34 26 3 26 -15 0 -25 -6 -25 -15z"/>
<path d="M1550 1701 c0 -5 11 -11 25 -13 17 -4 25 -1 25 8 0 8 -11 14 -25 14
-14 0 -25 -4 -25 -9z"/>
<path d="M1650 1698 c0 -15 19 -28 41 -28 5 0 9 10 9 21 0 17 -3 19 -13 10
-10 -8 -17 -7 -25 1 -9 9 -12 8 -12 -4z"/>
<path d="M1749 1684 c-4 -27 -3 -30 17 -26 13 2 30 -4 43 -17 26 -26 41 -27
41 -1 0 15 7 20 25 20 20 0 25 -5 25 -25 0 -17 -6 -25 -17 -25 -15 0 -16 -2
-3 -10 10 -6 16 -6 18 0 2 6 15 10 28 10 19 0 24 -5 24 -25 0 -20 5 -25 25
-25 18 0 25 -5 25 -19 0 -11 9 -22 19 -26 23 -7 126 -107 135 -131 3 -9 15
-18 25 -21 11 -3 21 -15 23 -27 2 -13 11 -22 27 -24 19 -3 22 -8 19 -31 -4
-25 -1 -27 24 -23 24 4 28 1 28 -21 0 -14 -6 -27 -14 -29 -22 -5 22 -98 46
-98 13 0 18 -8 18 -25 0 -14 -4 -25 -10 -25 -5 0 -10 -11 -10 -25 0 -14 5 -25
10 -25 6 0 10 -11 10 -25 0 -20 5 -25 25 -25 20 0 25 -5 25 -25 0 -20 -5 -25
-25 -25 -20 0 -25 -5 -25 -25 0 -20 5 -25 26 -25 22 0 25 -4 22 -27 -2 -23 -7
-27 -25 -25 -19 3 -23 -2 -23 -22 0 -21 5 -26 25 -26 20 0 25 -5 25 -25 0 -20
5 -25 25 -25 20 0 25 5 25 25 0 20 5 25 26 25 22 0 25 -4 22 -27 -2 -20 -9
-29 -25 -31 -33 -5 -31 -42 2 -42 20 0 25 5 25 25 0 20 5 25 25 25 20 0 25 -5
25 -25 0 -20 5 -25 25 -25 20 0 25 5 25 25 0 20 5 25 25 25 20 0 25 -5 25 -25
0 -20 5 -25 25 -25 20 0 25 -5 25 -25 0 -20 5 -25 25 -25 33 0 35 37 3 42 -17
2 -24 11 -26 31 -3 23 0 27 22 27 21 0 26 -5 26 -25 0 -20 5 -25 25 -25 20 0
25 5 25 25 0 20 5 25 25 25 20 0 25 5 25 25 0 20 5 25 26 25 22 0 25 -4 22
-27 -2 -20 -9 -29 -25 -31 -33 -5 -31 -42 2 -42 20 0 25 5 25 25 0 20 5 25 25
25 20 0 25 -5 25 -25 0 -21 5 -25 28 -24 l27 0 -25 10 c-18 7 -21 12 -11 18
10 7 9 9 -3 14 -9 4 -16 18 -16 32 0 20 5 25 28 26 26 0 27 0 4 10 -13 5 -21
13 -17 18 3 5 1 12 -5 16 -5 3 -10 17 -10 31 0 19 5 24 28 25 27 0 27 0 3 10
-19 8 -21 12 -11 24 10 12 9 15 -4 15 -10 0 -16 9 -16 25 0 20 5 25 28 26 23
2 24 2 5 6 -24 5 -32 23 -10 23 6 0 4 5 -5 11 -10 5 -18 21 -18 34 0 20 5 25
28 26 18 1 21 3 9 6 -13 3 -17 11 -14 24 3 12 0 19 -9 19 -8 0 -14 10 -14 25
0 20 5 25 28 26 26 0 26 1 5 9 -29 12 -29 18 0 30 21 8 21 9 -5 9 -23 1 -28 6
-28 26 0 20 5 25 28 26 26 0 26 1 5 9 -13 5 -23 12 -23 15 0 3 10 10 23 15 21
8 21 9 -5 9 -23 1 -28 6 -28 26 0 20 5 25 28 26 l27 0 -25 10 -25 10 25 14 25
14 -27 1 c-23 0 -28 4 -28 25 0 20 5 25 28 26 16 1 20 3 10 6 -10 2 -18 11
-18 18 0 7 8 16 18 18 10 3 6 5 -10 6 -23 1 -28 6 -28 26 0 20 5 25 28 26 26
0 26 1 5 9 -13 5 -23 12 -23 15 0 3 10 10 23 15 21 8 21 9 -5 9 -23 1 -28 6
-28 26 0 20 5 25 28 26 22 0 24 2 8 8 -11 4 -23 16 -27 27 -6 16 -8 14 -8 -8
-1 -23 -6 -28 -26 -28 -20 0 -25 5 -26 28 -1 16 -3 20 -6 10 -2 -10 -11 -18
-18 -18 -7 0 -16 8 -18 18 -3 10 -5 6 -6 -10 -1 -23 -6 -28 -26 -28 -20 0 -25
5 -26 28 -1 16 -3 20 -6 10 -2 -10 -11 -18 -18 -18 -7 0 -16 8 -18 18 -3 10
-5 6 -6 -10 -1 -23 -6 -28 -26 -28 -20 0 -25 5 -26 28 -1 16 -3 20 -6 10 -2
-10 -11 -18 -18 -18 -7 0 -16 8 -18 18 -3 10 -5 6 -6 -10 -1 -23 -6 -28 -26
-28 -20 0 -25 5 -26 28 -1 16 -3 20 -6 10 -2 -10 -11 -18 -18 -18 -7 0 -16 8
-18 18 -3 10 -5 6 -6 -10 -1 -23 -6 -28 -26 -28 -20 0 -25 5 -26 28 -1 16 -3
20 -6 10 -2 -10 -11 -18 -18 -18 -7 0 -16 8 -18 18 -3 10 -5 6 -6 -10 -1 -23
-6 -28 -26 -28 -20 0 -25 5 -26 28 -1 16 -3 20 -6 10 -2 -10 -11 -18 -18 -18
-7 0 -16 8 -18 18 -3 10 -5 6 -6 -10 -1 -23 -6 -28 -26 -28 -20 0 -25 5 -26
28 -1 16 -3 20 -6 10 -2 -10 -11 -18 -18 -18 -7 0 -16 8 -18 18 -3 10 -5 6 -6
-10 -1 -23 -6 -28 -26 -28 -20 0 -25 5 -26 28 -1 16 -3 20 -6 10 -2 -10 -11
-18 -18 -18 -7 0 -16 8 -18 18 -3 10 -5 6 -6 -10 -1 -23 -6 -28 -26 -28 -20 0
-25 5 -26 28 -1 16 -3 20 -6 10 -2 -10 -11 -18 -18 -18 -7 0 -16 8 -18 18 -3
10 -5 6 -6 -10 -1 -23 -6 -28 -26 -28 -20 0 -25 5 -26 28 -1 16 -3 20 -6 10
-2 -10 -11 -18 -18 -18 -7 0 -16 8 -18 18 -3 10 -5 6 -6 -10 -1 -23 -6 -28
-26 -28 -20 0 -25 5 -26 28 -1 16 -3 20 -6 10 -2 -10 -11 -18 -18 -18 -7 0
-16 8 -18 18 -3 10 -5 6 -6 -10 -1 -23 -6 -28 -26 -28 -20 0 -25 5 -26 28 -1
16 -3 20 -6 10 -2 -10 -11 -18 -18 -18 -7 0 -15 8 -17 18 -3 10 -6 5 -9 -14z
m251 -49 c0 -20 -5 -25 -25 -25 -20 0 -25 5 -25 25 0 20 5 25 25 25 20 0 25
-5 25 -25z m100 0 c0 -20 -5 -25 -25 -25 -20 0 -25 5 -25 25 0 20 5 25 25 25
20 0 25 -5 25 -25z m100 0 c0 -20 -5 -25 -25 -25 -20 0 -25 5 -25 25 0 20 5
25 25 25 20 0 25 -5 25 -25z m100 0 c0 -20 -5 -25 -25 -25 -20 0 -25 5 -25 25
0 20 5 25 25 25 20 0 25 -5 25 -25z m100 0 c0 -20 -5 -25 -25 -25 -20 0 -25 5
-25 25 0 20 5 25 25 25 20 0 25 -5 25 -25z m100 0 c0 -20 -5 -25 -25 -25 -20
0 -25 5 -25 25 0 20 5 25 25 25 20 0 25 -5 25 -25z m100 0 c0 -20 -5 -25 -25
-25 -20 0 -25 5 -25 25 0 20 5 25 25 25 20 0 25 -5 25 -25z m100 0 c0 -20 -5
-25 -25 -25 -20 0 -25 5 -25 25 0 20 5 25 25 25 20 0 25 -5 25 -25z m100 0 c0
-20 -5 -25 -25 -25 -20 0 -25 5 -25 25 0 20 5 25 25 25 20 0 25 -5 25 -25z
m100 0 c0 -20 -5 -25 -25 -25 -20 0 -25 5 -25 25 0 20 5 25 25 25 20 0 25 -5
25 -25z m-850 -50 c0 -20 -5 -25 -25 -25 -20 0 -25 5 -25 25 0 20 5 25 25 25
20 0 25 -5 25 -25z m100 0 c0 -20 -5 -25 -25 -25 -20 0 -25 5 -25 25 0 20 5
25 25 25 20 0 25 -5 25 -25z m100 0 c0 -20 -5 -25 -25 -25 -20 0 -25 5 -25 25
0 20 5 25 25 25 20 0 25 -5 25 -25z m100 0 c0 -20 -5 -25 -25 -25 -20 0 -25 5
-25 25 0 20 5 25 25 25 20 0 25 -5 25 -25z m100 0 c0 -20 -5 -25 -25 -25 -20
0 -25 5 -25 25 0 20 5 25 25 25 20 0 25 -5 25 -25z m100 0 c0 -20 -5 -25 -25
-25 -20 0 -25 5 -25 25 0 20 5 25 25 25 20 0 25 -5 25 -25z m100 0 c0 -20 -5
-25 -25 -25 -20 0 -25 5 -25 25 0 20 5 25 25 25 20 0 25 -5 25 -25z m100 0 c0
-20 -5 -25 -25 -25 -20 0 -25 5 -25 25 0 20 5 25 25 25 20 0 25 -5 25 -25z
m100 0 c0 -20 -5 -25 -25 -25 -20 0 -25 5 -25 25 0 20 5 25 25 25 20 0 25 -5
25 -25z m100 0 c0 -20 -5 -25 -25 -25 -20 0 -25 5 -25 25 0 20 5 25 25 25 20
0 25 -5 25 -25z m-850 -50 c0 -20 -5 -25 -25 -25 -20 0 -25 5 -25 25 0 20 5
25 25 25 20 0 25 -5 25 -25z m100 0 c0 -20 -5 -25 -25 -25 -20 0 -25 5 -25 25
0 20 5 25 25 25 20 0 25 -5 25 -25z m100 0 c0 -20 -5 -25 -25 -25 -20 0 -25 5
-25 25 0 20 5 25 25 25 20 0 25 -5 25 -25z m100 0 c0 -20 -5 -25 -25 -25 -20
0 -25 5 -25 25 0 20 5 25 25 25 20 0 25 -5 25 -25z m100 0 c0 -20 -5 -25 -25
-25 -20 0 -25 5 -25 25 0 20 5 25 25 25 20 0 25 -5 25 -25z m100 0 c0 -20 -5
-25 -25 -25 -20 0 -25 5 -25 25 0 20 5 25 25 25 20 0 25 -5 25 -25z m100 0 c0
-20 -5 -25 -25 -25 -20 0 -25 5 -25 25 0 20 5 25 25 25 20 0 25 -5 25 -25z
m100 0 c0 -20 -5 -25 -25 -25 -20 0 -25 5 -25 25 0 20 5 25 25 25 20 0 25 -5
25 -25z m100 0 c0 -20 -5 -25 -25 -25 -20 0 -25 5 -25 25 0 20 5 25 25 25 20
0 25 -5 25 -25z m-750 -50 c0 -20 -5 -25 -25 -25 -20 0 -25 5 -25 25 0 20 5
25 25 25 20 0 25 -5 25 -25z m100 0 c0 -20 -5 -25 -25 -25 -20 0 -25 5 -25 25
0 20 5 25 25 25 20 0 25 -5 25 -25z m100 0 c0 -20 -5 -25 -25 -25 -20 0 -25 5
-25 25 0 20 5 25 25 25 20 0 25 -5 25 -25z m100 0 c0 -20 -5 -25 -25 -25 -20
0 -25 5 -25 25 0 20 5 25 25 25 20 0 25 -5 25 -25z m100 0 c0 -20 -5 -25 -25
-25 -20 0 -25 5 -25 25 0 20 5 25 25 25 20 0 25 -5 25 -25z m100 0 c0 -20 -5
-25 -25 -25 -20 0 -25 5 -25 25 0 20 5 25 25 25 20 0 25 -5 25 -25z m100 0 c0
-20 -5 -25 -25 -25 -20 0 -25 5 -25 25 0 20 5 25 25 25 20 0 25 -5 25 -25z
m100 0 c0 -20 -5 -25 -25 -25 -20 0 -25 5 -25 25 0 20 5 25 25 25 20 0 25 -5
25 -25z m100 0 c0 -20 -5 -25 -25 -25 -20 0 -25 5 -25 25 0 20 5 25 25 25 20
0 25 -5 25 -25z m-750 -50 c0 -20 -5 -25 -25 -25 -20 0 -25 5 -25 25 0 20 5
25 25 25 20 0 25 -5 25 -25z m100 0 c0 -20 -5 -25 -25 -25 -20 0 -25 5 -25 25
0 20 5 25 25 25 20 0 25 -5 25 -25z m100 0 c0 -20 -5 -25 -25 -25 -20 0 -25 5
-25 25 0 20 5 25 25 25 20 0 25 -5 25 -25z m100 0 c0 -20 -5 -25 -25 -25 -20
0 -25 5 -25 25 0 20 5 25 25 25 20 0 25 -5 25 -25z m100 0 c0 -20 -5 -25 -25
-25 -20 0 -25 5 -25 25 0 20 5 25 25 25 20 0 25 -5 25 -25z m100 0 c0 -20 -5
-25 -25 -25 -20 0 -25 5 -25 25 0 20 5 25 25 25 20 0 25 -5 25 -25z m100 0 c0
-20 -5 -25 -25 -25 -20 0 -25 5 -25 25 0 20 5 25 25 25 20 0 25 -5 25 -25z
m100 0 c0 -20 -5 -25 -25 -25 -20 0 -25 5 -25 25 0 20 5 25 25 25 20 0 25 -5
25 -25z m-650 -50 c0 -20 -5 -25 -25 -25 -20 0 -25 5 -25 25 0 20 5 25 25 25
20 0 25 -5 25 -25z m100 0 c0 -20 -5 -25 -25 -25 -20 0 -25 5 -25 25 0 20 5
25 25 25 20 0 25 -5 25 -25z m100 0 c0 -20 -5 -25 -25 -25 -20 0 -25 5 -25 25
0 20 5 25 25 25 20 0 25 -5 25 -25z m100 0 c0 -20 -5 -25 -25 -25 -20 0 -25 5
-25 25 0 20 5 25 25 25 20 0 25 -5 25 -25z m100 0 c0 -20 -5 -25 -25 -25 -20
0 -25 5 -25 25 0 20 5 25 25 25 20 0 25 -5 25 -25z m100 0 c0 -20 -5 -25 -25
-25 -20 0 -25 5 -25 25 0 20 5 25 25 25 20 0 25 -5 25 -25z m100 0 c0 -20 -5
-25 -25 -25 -20 0 -25 5 -25 25 0 20 5 25 25 25 20 0 25 -5 25 -25z m100 0 c0
-20 -5 -25 -25 -25 -20 0 -25 5 -25 25 0 20 5 25 25 25 20 0 25 -5 25 -25z
m-650 -50 c0 -20 -5 -25 -25 -25 -20 0 -25 5 -25 25 0 20 5 25 25 25 20 0 25
-5 25 -25z m100 0 c0 -20 -5 -25 -25 -25 -20 0 -25 5 -25 25 0 20 5 25 25 25
20 0 25 -5 25 -25z m100 0 c0 -20 -5 -25 -25 -25 -20 0 -25 5 -25 25 0 20 5
25 25 25 20 0 25 -5 25 -25z m100 0 c0 -20 -5 -25 -25 -25 -20 0 -25 5 -25 25
0 20 5 25 25 25 20 0 25 -5 25 -25z m100 0 c0 -20 -5 -25 -25 -25 -20 0 -25 5
-25 25 0 20 5 25 25 25 20 0 25 -5 25 -25z m100 0 c0 -20 -5 -25 -25 -25 -20
0 -25 5 -25 25 0 20 5 25 25 25 20 0 25 -5 25 -25z m100 0 c0 -20 -5 -25 -25
-25 -20 0 -25 5 -25 25 0 20 5 25 25 25 20 0 25 -5 25 -25z m-550 -50 c0 -20
-5 -25 -25 -25 -20 0 -25 5 -25 25 0 20 5 25 25 25 20 0 25 -5 25 -25z m100 0
c0 -20 -5 -25 -25 -25 -20 0 -25 5 -25 25 0 20 5 25 25 25 20 0 25 -5 25 -25z
m100 0 c0 -20 -5 -25 -25 -25 -20 0 -25 5 -25 25 0 20 5 25 25 25 20 0 25 -5
25 -25z m100 0 c0 -20 -5 -25 -25 -25 -20 0 -25 5 -25 25 0 20 5 25 25 25 20
0 25 -5 25 -25z m100 0 c0 -20 -5 -25 -25 -25 -20 0 -25 5 -25 25 0 20 5 25
25 25 20 0 25 -5 25 -25z m100 0 c0 -20 -5 -25 -25 -25 -20 0 -25 5 -25 25 0
20 5 25 25 25 20 0 25 -5 25 -25z m100 0 c0 -20 -5 -25 -25 -25 -20 0 -25 5
-25 25 0 20 5 25 25 25 20 0 25 -5 25 -25z m-550 -50 c0 -20 -5 -25 -25 -25
-20 0 -25 5 -25 25 0 20 5 25 25 25 20 0 25 -5 25 -25z m100 0 c0 -20 -5 -25
-25 -25 -20 0 -25 5 -25 25 0 20 5 25 25 25 20 0 25 -5 25 -25z m100 0 c0 -20
-5 -25 -25 -25 -20 0 -25 5 -25 25 0 20 5 25 25 25 20 0 25 -5 25 -25z m100 0
c0 -20 -5 -25 -25 -25 -20 0 -25 5 -25 25 0 20 5 25 25 25 20 0 25 -5 25 -25z
m100 0 c0 -20 -5 -25 -25 -25 -20 0 -25 5 -25 25 0 20 5 25 25 25 20 0 25 -5
25 -25z m100 0 c0 -20 -5 -25 -25 -25 -20 0 -25 5 -25 25 0 20 5 25 25 25 20
0 25 -5 25 -25z m-550 -50 c0 -20 -5 -25 -25 -25 -20 0 -25 5 -25 25 0 20 5
25 25 25 20 0 25 -5 25 -25z m100 1 c0 -25 -15 -36 -37 -29 -7 3 -13 16 -13
29 0 19 5 24 25 24 20 0 25 -5 25 -24z m100 -1 c0 -20 -5 -25 -25 -25 -20 0
-25 5 -25 25 0 20 5 25 25 25 20 0 25 -5 25 -25z m100 0 c0 -20 -5 -25 -25
-25 -20 0 -25 5 -25 25 0 20 5 25 25 25 20 0 25 -5 25 -25z m100 0 c0 -20 -5
-25 -25 -25 -20 0 -25 5 -25 25 0 20 5 25 25 25 20 0 25 -5 25 -25z m100 1 c0
-25 -15 -36 -37 -29 -7 3 -13 16 -13 29 0 19 5 24 25 24 20 0 25 -5 25 -24z
m100 -1 c0 -20 -5 -25 -25 -25 -20 0 -25 5 -25 25 0 20 5 25 25 25 20 0 25 -5
25 -25z m-550 -50 c0 -20 -5 -25 -25 -25 -20 0 -25 5 -25 25 0 20 5 25 25 25
20 0 25 -5 25 -25z m100 0 c0 -20 -5 -25 -25 -25 -20 0 -25 5 -25 25 0 20 5
25 25 25 20 0 25 -5 25 -25z m100 0 c0 -20 -5 -25 -25 -25 -20 0 -25 5 -25 25
0 20 5 25 25 25 20 0 25 -5 25 -25z m100 0 c0 -20 -5 -25 -25 -25 -20 0 -25 5
-25 25 0 20 5 25 25 25 20 0 25 -5 25 -25z m100 0 c0 -20 -5 -25 -25 -25 -20
0 -25 5 -25 25 0 20 5 25 25 25 20 0 25 -5 25 -25z m100 0 c0 -20 -5 -25 -25
-25 -20 0 -25 5 -25 25 0 20 5 25 25 25 20 0 25 -5 25 -25z m-450 -49 c0 -15
-7 -26 -19 -29 -25 -6 -31 0 -31 30 0 18 5 23 25 23 20 0 25 -5 25 -24z m100
0 c0 -25 -15 -36 -37 -29 -7 3 -13 16 -13 29 0 19 5 24 25 24 20 0 25 -5 25
-24z m100 0 c0 -25 -15 -36 -37 -29 -7 3 -13 16 -13 29 0 19 5 24 25 24 20 0
25 -5 25 -24z m100 0 c0 -25 -15 -36 -37 -29 -7 3 -13 16 -13 29 0 19 5 24 25
24 20 0 25 -5 25 -24z m100 0 c0 -15 -7 -26 -19 -29 -25 -6 -31 0 -31 30 0 18
5 23 25 23 20 0 25 -5 25 -24z m100 -1 c0 -20 -5 -25 -25 -25 -20 0 -25 5 -25
25 0 20 5 25 25 25 20 0 25 -5 25 -25z m-550 -49 c0 -25 -15 -36 -37 -29 -7 3
-13 16 -13 29 0 19 5 24 25 24 20 0 25 -5 25 -24z m100 -1 c0 -20 -5 -25 -25
-25 -20 0 -25 5 -25 25 0 20 5 25 25 25 20 0 25 -5 25 -25z m100 0 c0 -20 -5
-25 -25 -25 -20 0 -25 5 -25 25 0 20 5 25 25 25 20 0 25 -5 25 -25z m100 0 c0
-20 -5 -25 -25 -25 -20 0 -25 5 -25 25 0 20 5 25 25 25 20 0 25 -5 25 -25z
m100 0 c0 -20 -5 -25 -25 -25 -20 0 -25 5 -25 25 0 20 5 25 25 25 20 0 25 -5
25 -25z m100 0 c0 -20 -5 -25 -25 -25 -20 0 -25 5 -25 25 0 20 5 25 25 25 20
0 25 -5 25 -25z m-450 -50 c0 -20 -5 -25 -25 -25 -20 0 -25 5 -25 25 0 20 5
25 25 25 20 0 25 -5 25 -25z m100 0 c0 -20 -5 -25 -25 -25 -20 0 -25 5 -25 25
0 20 5 25 25 25 20 0 25 -5 25 -25z m100 0 c0 -20 -5 -25 -25 -25 -20 0 -25 5
-25 25 0 20 5 25 25 25 20 0 25 -5 25 -25z m100 0 c0 -20 -5 -25 -25 -25 -20
0 -25 5 -25 25 0 20 5 25 25 25 20 0 25 -5 25 -25z m100 0 c0 -20 -5 -25 -25
-25 -20 0 -25 5 -25 25 0 20 5 25 25 25 20 0 25 -5 25 -25z m100 0 c0 -20 -5
-25 -25 -25 -20 0 -25 5 -25 25 0 20 5 25 25 25 20 0 25 -5 25 -25z m-450 -50
c0 -20 -5 -25 -25 -25 -20 0 -25 5 -25 25 0 20 5 25 25 25 20 0 25 -5 25 -25z
m100 0 c0 -20 -5 -25 -25 -25 -20 0 -25 5 -25 25 0 20 5 25 25 25 20 0 25 -5
25 -25z m100 0 c0 -20 -5 -25 -25 -25 -20 0 -25 5 -25 25 0 20 5 25 25 25 20
0 25 -5 25 -25z m100 0 c0 -20 -5 -25 -25 -25 -20 0 -25 5 -25 25 0 20 5 25
25 25 20 0 25 -5 25 -25z m100 0 c0 -20 -5 -25 -25 -25 -20 0 -25 5 -25 25 0
20 5 25 25 25 20 0 25 -5 25 -25z m-452 -52 c-2 -20 -9 -28 -23 -28 -14 0 -21
8 -23 28 -3 23 0 27 23 27 23 0 26 -4 23 -27z m100 0 c-2 -20 -9 -28 -23 -28
-14 0 -21 8 -23 28 -3 23 0 27 23 27 23 0 26 -4 23 -27z m100 0 c-2 -20 -9
-28 -23 -28 -14 0 -21 8 -23 28 -3 23 0 27 23 27 23 0 26 -4 23 -27z m100 0
c-2 -20 -9 -28 -23 -28 -14 0 -21 8 -23 28 -3 23 0 27 23 27 23 0 26 -4 23
-27z m100 0 c-2 -20 -9 -28 -23 -28 -14 0 -21 8 -23 28 -3 23 0 27 23 27 23 0
26 -4 23 -27z m100 0 c-2 -20 -9 -28 -23 -28 -14 0 -21 8 -23 28 -3 23 0 27
23 27 23 0 26 -4 23 -27z m-448 -47 c0 -24 -23 -41 -41 -30 -5 3 -9 16 -9 30
0 19 5 24 25 24 20 0 25 -5 25 -24z m98 -3 c-2 -20 -9 -28 -23 -28 -14 0 -21
8 -23 28 -3 23 0 27 23 27 23 0 26 -4 23 -27z m100 0 c-2 -20 -9 -28 -23 -28
-14 0 -21 8 -23 28 -3 23 0 27 23 27 23 0 26 -4 23 -27z m100 0 c-2 -20 -9
-28 -23 -28 -14 0 -21 8 -23 28 -3 23 0 27 23 27 23 0 26 -4 23 -27z m102 3
c0 -24 -23 -41 -41 -30 -5 3 -9 16 -9 30 0 19 5 24 25 24 20 0 25 -5 25 -24z
m-450 -50 c0 -14 -4 -27 -9 -30 -18 -11 -41 6 -41 30 0 19 5 24 25 24 20 0 25
-5 25 -24z m98 -3 c-2 -20 -9 -28 -23 -28 -14 0 -21 8 -23 28 -3 23 0 27 23
27 23 0 26 -4 23 -27z m100 0 c-2 -20 -9 -28 -23 -28 -14 0 -21 8 -23 28 -3
23 0 27 23 27 23 0 26 -4 23 -27z m100 0 c-2 -20 -9 -28 -23 -28 -14 0 -21 8
-23 28 -3 23 0 27 23 27 23 0 26 -4 23 -27z m102 3 c0 -14 -4 -27 -9 -30 -18
-11 -41 6 -41 30 0 19 5 24 25 24 20 0 25 -5 25 -24z m98 -3 c-2 -20 -9 -28
-23 -28 -14 0 -21 8 -23 28 -3 23 0 27 23 27 23 0 26 -4 23 -27z m-350 -50
c-2 -20 -9 -28 -23 -28 -14 0 -21 8 -23 28 -3 23 0 27 23 27 23 0 26 -4 23
-27z m102 3 c0 -14 -4 -27 -9 -30 -18 -11 -41 6 -41 30 0 19 5 24 25 24 20 0
25 -5 25 -24z m98 -3 c-2 -20 -9 -28 -23 -28 -14 0 -21 8 -23 28 -3 23 0 27
23 27 23 0 26 -4 23 -27z"/>
<path d="M1902 1324 c-6 -11 -18 -15 -34 -12 -21 4 -24 2 -20 -24 4 -25 1 -28
-22 -28 -16 0 -26 5 -26 15 0 21 -10 19 -51 -10 -20 -13 -39 -21 -43 -18 -3 4
-6 -3 -6 -15 0 -17 -6 -22 -25 -22 -20 0 -25 5 -25 25 0 20 -5 25 -27 26 -61
4 -256 4 -240 1 10 -2 17 -13 17 -28 0 -19 -5 -24 -25 -24 -20 0 -25 5 -25 26
0 20 -4 25 -16 20 -9 -3 -20 -6 -25 -6 -5 0 -9 -9 -9 -20 0 -15 -7 -20 -26
-20 -23 0 -26 3 -22 28 4 26 2 28 -24 24 -23 -3 -28 0 -28 16 0 25 -88 62
-100 42 -4 -7 -19 -11 -32 -8 -21 4 -24 1 -20 -24 3 -16 0 -28 -7 -28 -6 0
-11 -11 -11 -25 0 -14 5 -25 10 -25 13 0 13 -47 0 -52 -6 -2 -6 -16 2 -40 14
-46 6 -68 -21 -61 -17 4 -21 1 -21 -17 0 -12 -7 -28 -15 -36 -8 -9 -15 -22
-15 -30 0 -8 7 -14 15 -14 9 0 15 -9 15 -25 0 -18 -5 -25 -20 -25 -15 0 -20
-7 -20 -25 0 -18 5 -25 20 -25 15 0 20 -7 20 -25 0 -18 -5 -25 -20 -25 -11 0
-20 -4 -20 -9 0 -21 13 -41 26 -41 17 0 19 -47 2 -52 -8 -3 -8 -9 0 -24 11
-18 11 -18 12 4 0 17 6 22 25 22 20 0 25 -5 25 -25 0 -20 5 -25 25 -25 20 0
25 -5 25 -25 0 -20 5 -25 25 -25 33 0 35 37 3 42 -17 2 -24 11 -26 31 -3 23 0
27 22 27 21 0 26 -5 26 -25 0 -20 5 -25 25 -25 20 0 25 5 25 25 0 20 5 25 25
25 20 0 25 5 25 25 0 20 5 25 26 25 22 0 25 -4 22 -27 -2 -20 -9 -29 -25 -31
-33 -5 -31 -42 2 -42 20 0 25 5 25 25 0 20 5 25 25 25 20 0 25 -5 25 -25 0
-20 5 -25 25 -25 20 0 25 5 25 25 0 20 5 25 25 25 20 0 25 -5 25 -25 0 -20 5
-25 25 -25 20 0 25 -5 25 -25 0 -20 5 -25 25 -25 33 0 35 37 3 42 -17 2 -24
11 -26 31 -3 23 0 27 22 27 21 0 26 -5 26 -25 0 -20 5 -25 25 -25 20 0 25 5
25 25 0 20 5 25 25 25 20 0 25 5 25 25 0 20 5 25 26 25 22 0 25 -4 22 -27 -2
-20 -9 -29 -25 -31 -33 -5 -31 -42 2 -42 20 0 25 5 25 25 0 20 5 25 25 25 20
0 25 -5 25 -25 0 -20 5 -25 25 -25 20 0 25 5 25 25 0 20 5 25 25 25 20 0 25
-5 25 -25 0 -20 5 -25 25 -25 20 0 25 -5 25 -25 0 -20 5 -25 25 -25 17 0 25
-6 25 -17 0 -15 2 -16 10 -3 6 10 6 16 0 18 -6 2 -10 12 -10 23 0 10 -4 19
-10 19 -5 0 -10 -5 -10 -12 0 -6 -7 -3 -15 8 -8 10 -15 29 -15 42 0 17 6 22
25 22 20 0 25 -5 25 -25 0 -20 5 -25 25 -25 19 0 25 5 25 21 0 11 7 27 15 35
8 9 15 22 15 30 0 8 -7 14 -15 14 -9 0 -15 9 -15 25 0 18 5 25 20 25 15 0 20
7 20 25 0 18 -5 25 -20 25 -15 0 -20 7 -20 25 0 18 5 25 20 25 14 0 20 7 20
21 0 12 -8 23 -20 26 -21 6 -29 48 -10 55 6 2 6 8 0 18 -8 13 -10 12 -10 -2 0
-12 -8 -18 -25 -18 -20 0 -25 5 -25 25 0 19 5 25 21 25 l20 0 -20 29 c-22 30
-28 71 -11 71 6 0 10 11 10 25 0 14 -4 25 -10 25 -14 0 -13 47 1 52 16 5 -16
78 -35 78 -8 0 -19 -7 -24 -16z m-752 -39 c0 -20 5 -25 25 -25 20 0 25 -5 25
-25 0 -20 -5 -25 -25 -25 -20 0 -25 5 -25 25 0 20 -5 25 -25 25 -20 0 -25 5
-25 25 0 20 5 25 25 25 20 0 25 -5 25 -25z m800 0 c0 -20 -5 -25 -25 -25 -20
0 -25 5 -25 25 0 20 5 25 25 25 20 0 25 -5 25 -25z m-850 -50 c0 -20 -5 -25
-25 -25 -20 0 -25 5 -25 25 0 20 5 25 25 25 20 0 25 -5 25 -25z m400 0 c0 -20
-5 -25 -25 -25 -20 0 -25 5 -25 25 0 20 5 25 25 25 20 0 25 -5 25 -25z m100 0
c0 -20 -5 -25 -25 -25 -20 0 -25 5 -25 25 0 20 5 25 25 25 20 0 25 -5 25 -25z
m200 0 c0 -20 -5 -25 -25 -25 -20 0 -25 5 -25 25 0 20 5 25 25 25 20 0 25 -5
25 -25z m100 0 c0 -20 -5 -25 -25 -25 -20 0 -25 5 -25 25 0 20 5 25 25 25 20
0 25 -5 25 -25z m-750 -50 c0 -20 -5 -25 -25 -25 -20 0 -25 5 -25 25 0 20 5
25 25 25 20 0 25 -5 25 -25z m100 1 c0 -25 -15 -36 -37 -29 -7 3 -13 16 -13
29 0 19 5 24 25 24 20 0 25 -5 25 -24z m100 -1 c0 -20 -5 -25 -25 -25 -20 0
-25 5 -25 25 0 20 5 25 25 25 20 0 25 -5 25 -25z m100 0 c0 -20 -5 -25 -25
-25 -20 0 -25 5 -25 25 0 20 5 25 25 25 20 0 25 -5 25 -25z m100 0 c0 -20 -5
-25 -25 -25 -20 0 -25 5 -25 25 0 20 5 25 25 25 20 0 25 -5 25 -25z m100 1 c0
-25 -15 -36 -37 -29 -7 3 -13 16 -13 29 0 19 5 24 25 24 20 0 25 -5 25 -24z
m100 -1 c0 -20 -5 -25 -25 -25 -20 0 -25 5 -25 25 0 20 5 25 25 25 20 0 25 -5
25 -25z m100 0 c0 -20 -5 -25 -25 -25 -20 0 -25 5 -25 25 0 20 5 25 25 25 20
0 25 -5 25 -25z m100 0 c0 -20 -5 -25 -25 -25 -20 0 -25 5 -25 25 0 20 5 25
25 25 20 0 25 -5 25 -25z m-850 -50 c0 -20 -5 -25 -25 -25 -20 0 -25 5 -25 25
0 20 5 25 25 25 20 0 25 -5 25 -25z m100 0 c0 -20 -5 -25 -25 -25 -20 0 -25 5
-25 25 0 20 5 25 25 25 20 0 25 -5 25 -25z m100 0 c0 -20 -5 -25 -25 -25 -20
0 -25 5 -25 25 0 20 5 25 25 25 20 0 25 -5 25 -25z m100 0 c0 -20 -5 -25 -25
-25 -20 0 -25 5 -25 25 0 20 5 25 25 25 20 0 25 -5 25 -25z m100 0 c0 -20 -5
-25 -25 -25 -20 0 -25 5 -25 25 0 20 5 25 25 25 20 0 25 -5 25 -25z m100 0 c0
-20 -5 -25 -25 -25 -20 0 -25 5 -25 25 0 20 5 25 25 25 20 0 25 -5 25 -25z
m100 0 c0 -20 -5 -25 -25 -25 -20 0 -25 5 -25 25 0 20 5 25 25 25 20 0 25 -5
25 -25z m100 0 c0 -20 -5 -25 -25 -25 -20 0 -25 5 -25 25 0 20 5 25 25 25 20
0 25 -5 25 -25z m100 0 c0 -20 -5 -25 -25 -25 -20 0 -25 5 -25 25 0 20 5 25
25 25 20 0 25 -5 25 -25z m-750 -49 c0 -25 -15 -36 -37 -29 -7 3 -13 16 -13
29 0 19 5 24 25 24 20 0 25 -5 25 -24z m100 0 c0 -15 -7 -26 -19 -29 -25 -6
-31 0 -31 30 0 18 5 23 25 23 20 0 25 -5 25 -24z m100 0 c0 -25 -15 -36 -37
-29 -7 3 -13 16 -13 29 0 19 5 24 25 24 20 0 25 -5 25 -24z m100 0 c0 -25 -15
-36 -37 -29 -7 3 -13 16 -13 29 0 19 5 24 25 24 20 0 25 -5 25 -24z m100 0 c0
-25 -15 -36 -37 -29 -7 3 -13 16 -13 29 0 19 5 24 25 24 20 0 25 -5 25 -24z
m100 0 c0 -15 -7 -26 -19 -29 -25 -6 -31 0 -31 30 0 18 5 23 25 23 20 0 25 -5
25 -24z m100 0 c0 -25 -15 -36 -37 -29 -7 3 -13 16 -13 29 0 19 5 24 25 24 20
0 25 -5 25 -24z m100 0 c0 -25 -15 -36 -37 -29 -7 3 -13 16 -13 29 0 19 5 24
25 24 20 0 25 -5 25 -24z m100 -1 c0 -20 -5 -25 -25 -25 -20 0 -25 5 -25 25 0
20 5 25 25 25 20 0 25 -5 25 -25z m-850 -50 c0 -20 -5 -25 -25 -25 -20 0 -25
5 -25 25 0 20 5 25 25 25 20 0 25 -5 25 -25z m100 0 c0 -20 -5 -25 -25 -25
-20 0 -25 5 -25 25 0 20 5 25 25 25 20 0 25 -5 25 -25z m100 0 c0 -20 -5 -25
-25 -25 -20 0 -25 5 -25 25 0 20 5 25 25 25 20 0 25 -5 25 -25z m100 0 c0 -20
-5 -25 -25 -25 -20 0 -25 5 -25 25 0 20 5 25 25 25 20 0 25 -5 25 -25z m100 0
c0 -20 -5 -25 -25 -25 -20 0 -25 5 -25 25 0 20 5 25 25 25 20 0 25 -5 25 -25z
m100 0 c0 -20 -5 -25 -25 -25 -20 0 -25 5 -25 25 0 20 5 25 25 25 20 0 25 -5
25 -25z m100 0 c0 -20 -5 -25 -25 -25 -20 0 -25 5 -25 25 0 20 5 25 25 25 20
0 25 -5 25 -25z m100 0 c0 -20 -5 -25 -25 -25 -20 0 -25 5 -25 25 0 20 5 25
25 25 20 0 25 -5 25 -25z m100 0 c0 -20 -5 -25 -25 -25 -20 0 -25 5 -25 25 0
20 5 25 25 25 20 0 25 -5 25 -25z m-850 -49 c0 -15 -7 -26 -19 -29 -25 -6 -31
0 -31 30 0 18 5 23 25 23 20 0 25 -5 25 -24z m100 -1 c0 -20 -5 -25 -25 -25
-20 0 -25 5 -25 25 0 20 5 25 25 25 20 0 25 -5 25 -25z m100 0 c0 -20 -5 -25
-25 -25 -20 0 -25 5 -25 25 0 20 5 25 25 25 20 0 25 -5 25 -25z m100 0 c0 -20
-5 -25 -25 -25 -20 0 -25 5 -25 25 0 20 5 25 25 25 20 0 25 -5 25 -25z m100 0
c0 -20 -5 -25 -25 -25 -20 0 -25 5 -25 25 0 20 5 25 25 25 20 0 25 -5 25 -25z
m100 0 c0 -20 -5 -25 -25 -25 -20 0 -25 5 -25 25 0 20 5 25 25 25 20 0 25 -5
25 -25z m100 0 c0 -20 -5 -25 -25 -25 -20 0 -25 5 -25 25 0 20 5 25 25 25 20
0 25 -5 25 -25z m100 0 c0 -20 -5 -25 -25 -25 -20 0 -25 5 -25 25 0 20 5 25
25 25 20 0 25 -5 25 -25z m100 0 c0 -20 -5 -25 -25 -25 -20 0 -25 5 -25 25 0
20 5 25 25 25 20 0 25 -5 25 -25z m100 0 c0 -20 -5 -25 -25 -25 -20 0 -25 5
-25 25 0 20 5 25 25 25 20 0 25 -5 25 -25z m-850 -50 c0 -20 -5 -25 -25 -25
-20 0 -25 5 -25 25 0 20 5 25 25 25 20 0 25 -5 25 -25z m100 0 c0 -20 -5 -25
-25 -25 -20 0 -25 5 -25 25 0 20 5 25 25 25 20 0 25 -5 25 -25z m100 0 c0 -20
-5 -25 -25 -25 -20 0 -25 5 -25 25 0 20 5 25 25 25 20 0 25 -5 25 -25z m100 0
c0 -20 -5 -25 -25 -25 -20 0 -25 5 -25 25 0 20 5 25 25 25 20 0 25 -5 25 -25z
m100 0 c0 -20 -5 -25 -25 -25 -20 0 -25 5 -25 25 0 20 5 25 25 25 20 0 25 -5
25 -25z m100 0 c0 -20 -5 -25 -25 -25 -20 0 -25 5 -25 25 0 20 5 25 25 25 20
0 25 -5 25 -25z m100 0 c0 -20 -5 -25 -25 -25 -20 0 -25 5 -25 25 0 20 5 25
25 25 20 0 25 -5 25 -25z m100 0 c0 -20 -5 -25 -25 -25 -20 0 -25 5 -25 25 0
20 5 25 25 25 20 0 25 -5 25 -25z m100 0 c0 -20 -5 -25 -25 -25 -20 0 -25 5
-25 25 0 20 5 25 25 25 20 0 25 -5 25 -25z m100 0 c0 -20 -5 -25 -25 -25 -20
0 -25 5 -25 25 0 20 5 25 25 25 20 0 25 -5 25 -25z m-952 -52 c-2 -20 -9 -28
-23 -28 -14 0 -21 8 -23 28 -3 23 0 27 23 27 23 0 26 -4 23 -27z m100 0 c-2
-20 -9 -28 -23 -28 -14 0 -21 8 -23 28 -3 23 0 27 23 27 23 0 26 -4 23 -27z
m100 0 c-2 -20 -9 -28 -23 -28 -14 0 -21 8 -23 28 -3 23 0 27 23 27 23 0 26
-4 23 -27z m100 0 c-2 -20 -9 -28 -23 -28 -14 0 -21 8 -23 28 -3 23 0 27 23
27 23 0 26 -4 23 -27z m100 0 c-2 -20 -9 -28 -23 -28 -14 0 -21 8 -23 28 -3
23 0 27 23 27 23 0 26 -4 23 -27z m100 0 c-2 -20 -9 -28 -23 -28 -14 0 -21 8
-23 28 -3 23 0 27 23 27 23 0 26 -4 23 -27z m100 0 c-2 -20 -9 -28 -23 -28
-14 0 -21 8 -23 28 -3 23 0 27 23 27 23 0 26 -4 23 -27z m100 0 c-2 -20 -9
-28 -23 -28 -14 0 -21 8 -23 28 -3 23 0 27 23 27 23 0 26 -4 23 -27z m100 0
c-2 -20 -9 -28 -23 -28 -14 0 -21 8 -23 28 -3 23 0 27 23 27 23 0 26 -4 23
-27z m100 0 c-2 -20 -9 -28 -23 -28 -14 0 -21 8 -23 28 -3 23 0 27 23 27 23 0
26 -4 23 -27z m-850 -50 c-2 -20 -9 -28 -23 -28 -14 0 -21 8 -23 28 -3 23 0
27 23 27 23 0 26 -4 23 -27z m100 0 c-2 -20 -9 -28 -23 -28 -14 0 -21 8 -23
28 -3 23 0 27 23 27 23 0 26 -4 23 -27z m102 3 c0 -24 -23 -41 -41 -30 -5 3
-9 16 -9 30 0 19 5 24 25 24 20 0 25 -5 25 -24z m98 -3 c-2 -20 -9 -28 -23
-28 -14 0 -21 8 -23 28 -3 23 0 27 23 27 23 0 26 -4 23 -27z m100 0 c-2 -20
-9 -28 -23 -28 -14 0 -21 8 -23 28 -3 23 0 27 23 27 23 0 26 -4 23 -27z m100
0 c-2 -20 -9 -28 -23 -28 -14 0 -21 8 -23 28 -3 23 0 27 23 27 23 0 26 -4 23
-27z m102 3 c0 -24 -23 -41 -41 -30 -5 3 -9 16 -9 30 0 19 5 24 25 24 20 0 25
-5 25 -24z m98 -3 c-2 -20 -9 -28 -23 -28 -14 0 -21 8 -23 28 -3 23 0 27 23
27 23 0 26 -4 23 -27z m100 0 c-2 -20 -9 -28 -23 -28 -14 0 -21 8 -23 28 -3
23 0 27 23 27 23 0 26 -4 23 -27z m100 0 c-2 -20 -9 -28 -23 -28 -14 0 -21 8
-23 28 -3 23 0 27 23 27 23 0 26 -4 23 -27z m-950 -50 c-2 -20 -9 -28 -23 -28
-14 0 -21 8 -23 28 -3 23 0 27 23 27 23 0 26 -4 23 -27z m100 0 c-2 -20 -9
-28 -23 -28 -14 0 -21 8 -23 28 -3 23 0 27 23 27 23 0 26 -4 23 -27z m102 3
c0 -14 -4 -27 -9 -30 -18 -11 -41 6 -41 30 0 19 5 24 25 24 20 0 25 -5 25 -24z
m98 -3 c-2 -20 -9 -28 -23 -28 -14 0 -21 8 -23 28 -3 23 0 27 23 27 23 0 26
-4 23 -27z m100 0 c-2 -20 -9 -28 -23 -28 -14 0 -21 8 -23 28 -3 23 0 27 23
27 23 0 26 -4 23 -27z m100 0 c-2 -20 -9 -28 -23 -28 -14 0 -21 8 -23 28 -3
23 0 27 23 27 23 0 26 -4 23 -27z m102 3 c0 -14 -4 -27 -9 -30 -18 -11 -41 6
-41 30 0 19 5 24 25 24 20 0 25 -5 25 -24z m98 -3 c-2 -20 -9 -28 -23 -28 -14
0 -21 8 -23 28 -3 23 0 27 23 27 23 0 26 -4 23 -27z m100 0 c-2 -20 -9 -28
-23 -28 -14 0 -21 8 -23 28 -3 23 0 27 23 27 23 0 26 -4 23 -27z m100 0 c-2
-20 -9 -28 -23 -28 -14 0 -21 8 -23 28 -3 23 0 27 23 27 23 0 26 -4 23 -27z
m-848 -47 c0 -14 -4 -27 -9 -30 -18 -11 -41 6 -41 30 0 19 5 24 25 24 20 0 25
-5 25 -24z m98 -3 c-2 -20 -9 -28 -23 -28 -14 0 -21 8 -23 28 -3 23 0 27 23
27 23 0 26 -4 23 -27z m200 0 c-2 -20 -9 -28 -23 -28 -14 0 -21 8 -23 28 -3
23 0 27 23 27 23 0 26 -4 23 -27z m102 3 c0 -14 -4 -27 -9 -30 -18 -11 -41 6
-41 30 0 19 5 24 25 24 20 0 25 -5 25 -24z m98 -3 c-2 -20 -9 -28 -23 -28 -14
0 -21 8 -23 28 -3 23 0 27 23 27 23 0 26 -4 23 -27z m200 0 c-2 -20 -9 -28
-23 -28 -14 0 -21 8 -23 28 -3 23 0 27 23 27 23 0 26 -4 23 -27z m102 3 c0
-14 -4 -27 -9 -30 -18 -11 -41 6 -41 30 0 19 5 24 25 24 20 0 25 -5 25 -24z
m98 -3 c-2 -20 -9 -28 -23 -28 -14 0 -21 8 -23 28 -3 23 0 27 23 27 23 0 26
-4 23 -27z"/>
<path d="M2350 687 c0 -14 -4 -29 -10 -32 -5 -3 -10 -15 -10 -26 0 -10 5 -19
10 -19 6 0 10 -11 10 -25 0 -20 5 -25 25 -25 33 0 35 37 3 42 -17 2 -24 11
-26 31 -3 23 0 27 22 27 19 0 26 5 26 20 0 11 -4 20 -9 20 -5 0 -16 3 -25 6
-12 5 -16 0 -16 -19z"/>
<path d="M648 678 c-2 -15 -11 -24 -25 -26 -33 -5 -31 -42 2 -42 20 0 25 -5
25 -25 0 -18 5 -25 19 -25 14 0 18 5 14 21 -3 11 -12 23 -20 26 -11 5 -13 16
-8 49 3 24 4 44 1 44 -2 0 -6 -10 -8 -22z"/>
<path d="M1011 636 c7 -14 18 -26 24 -26 7 0 15 -9 18 -21 3 -11 15 -23 26
-26 12 -3 21 -11 21 -18 0 -6 11 -17 25 -23 22 -10 25 -9 25 8 0 12 -8 20 -22
22 -15 2 -24 11 -26 25 -2 14 -11 23 -25 25 -14 2 -23 11 -25 26 -2 12 -7 22
-12 22 -5 0 -16 3 -25 6 -14 6 -14 3 -4 -20z"/>
<path d="M100 630 c0 -15 7 -20 25 -20 18 0 25 5 25 20 0 15 -7 20 -25 20 -18
0 -25 -5 -25 -20z"/>
<path d="M200 630 c0 -15 7 -20 25 -20 18 0 25 5 25 20 0 15 -7 20 -25 20 -18
0 -25 -5 -25 -20z"/>
<path d="M400 630 c0 -15 7 -20 25 -20 18 0 25 5 25 20 0 15 -7 20 -25 20 -18
0 -25 -5 -25 -20z"/>
<path d="M500 630 c0 -15 7 -20 25 -20 18 0 25 5 25 20 0 15 -7 20 -25 20 -18
0 -25 -5 -25 -20z"/>
<path d="M1200 630 c0 -15 7 -20 25 -20 18 0 25 5 25 20 0 15 -7 20 -25 20
-18 0 -25 -5 -25 -20z"/>
<path d="M1300 630 c0 -15 7 -20 25 -20 18 0 25 5 25 20 0 15 -7 20 -25 20
-18 0 -25 -5 -25 -20z"/>
<path d="M1400 630 c0 -15 7 -20 25 -20 18 0 25 5 25 20 0 15 -7 20 -25 20
-18 0 -25 -5 -25 -20z"/>
<path d="M1600 630 c0 -15 7 -20 25 -20 18 0 25 5 25 20 0 15 -7 20 -25 20
-18 0 -25 -5 -25 -20z"/>
<path d="M1700 630 c0 -15 7 -20 25 -20 18 0 25 5 25 20 0 15 -7 20 -25 20
-18 0 -25 -5 -25 -20z"/>
<path d="M1800 630 c0 -15 7 -20 25 -20 18 0 25 5 25 20 0 15 -7 20 -25 20
-18 0 -25 -5 -25 -20z"/>
<path d="M2400 630 c0 -15 7 -20 25 -20 18 0 25 5 25 20 0 15 -7 20 -25 20
-18 0 -25 -5 -25 -20z"/>
<path d="M2500 630 c0 -15 7 -20 25 -20 18 0 25 5 25 20 0 15 -7 20 -25 20
-18 0 -25 -5 -25 -20z"/>
<path d="M2600 630 c0 -15 7 -20 25 -20 18 0 25 5 25 20 0 15 -7 20 -25 20
-18 0 -25 -5 -25 -20z"/>
<path d="M2800 630 c0 -15 7 -20 25 -20 18 0 25 5 25 20 0 15 -7 20 -25 20
-18 0 -25 -5 -25 -20z"/>
<path d="M2900 630 c0 -15 7 -20 25 -20 18 0 25 5 25 20 0 15 -7 20 -25 20
-18 0 -25 -5 -25 -20z"/>
<path d="M50 583 c0 -18 6 -23 25 -23 18 0 25 5 25 20 0 11 -7 20 -15 20 -9 0
-12 -6 -8 -17 5 -15 3 -14 -10 2 -16 20 -16 20 -17 -2z"/>
<path d="M150 580 c0 -15 7 -20 25 -20 18 0 25 5 25 20 0 15 -7 20 -25 20 -18
0 -25 -5 -25 -20z"/>
<path d="M250 580 c0 -15 7 -20 25 -20 18 0 25 5 25 20 0 15 -7 20 -25 20 -18
0 -25 -5 -25 -20z"/>
<path d="M350 580 c0 -15 7 -20 25 -20 18 0 25 5 25 20 0 15 -7 20 -25 20 -18
0 -25 -5 -25 -20z"/>
<path d="M450 580 c0 -15 7 -20 25 -20 18 0 25 5 25 20 0 15 -7 20 -25 20 -18
0 -25 -5 -25 -20z"/>
<path d="M550 580 c0 -15 7 -20 25 -20 18 0 25 5 25 20 0 15 -7 20 -25 20 -18
0 -25 -5 -25 -20z"/>
<path d="M1150 580 c0 -15 7 -20 25 -20 18 0 25 5 25 20 0 15 -7 20 -25 20
-18 0 -25 -5 -25 -20z"/>
<path d="M1250 580 c0 -15 7 -20 25 -20 18 0 25 5 25 20 0 15 -7 20 -25 20
-18 0 -25 -5 -25 -20z"/>
<path d="M1350 580 c0 -15 7 -20 25 -20 18 0 25 5 25 20 0 15 -7 20 -25 20
-18 0 -25 -5 -25 -20z"/>
<path d="M1450 580 c0 -15 7 -20 25 -20 18 0 25 5 25 20 0 15 -7 20 -25 20
-18 0 -25 -5 -25 -20z"/>
<path d="M1550 580 c0 -15 7 -20 25 -20 18 0 25 5 25 20 0 15 -7 20 -25 20
-18 0 -25 -5 -25 -20z"/>
<path d="M1650 580 c0 -15 7 -20 25 -20 18 0 25 5 25 20 0 15 -7 20 -25 20
-18 0 -25 -5 -25 -20z"/>
<path d="M1750 580 c0 -15 7 -20 25 -20 18 0 25 5 25 20 0 15 -7 20 -25 20
-18 0 -25 -5 -25 -20z"/>
<path d="M1850 580 c0 -14 7 -20 24 -20 13 0 26 -5 28 -12 3 -9 6 -9 12 0 4 7
2 12 -3 12 -6 0 -11 9 -11 20 0 15 -7 20 -25 20 -18 0 -25 -5 -25 -20z"/>
<path d="M2450 580 c0 -15 7 -20 25 -20 18 0 25 5 25 20 0 15 -7 20 -25 20
-18 0 -25 -5 -25 -20z"/>
<path d="M2550 580 c0 -15 7 -20 25 -20 18 0 25 5 25 20 0 15 -7 20 -25 20
-18 0 -25 -5 -25 -20z"/>
<path d="M2650 580 c0 -15 7 -20 25 -20 18 0 25 5 25 20 0 15 -7 20 -25 20
-18 0 -25 -5 -25 -20z"/>
<path d="M2750 580 c0 -15 7 -20 25 -20 18 0 25 5 25 20 0 15 -7 20 -25 20
-18 0 -25 -5 -25 -20z"/>
<path d="M2850 580 c0 -15 7 -20 25 -20 18 0 25 5 25 20 0 15 -7 20 -25 20
-18 0 -25 -5 -25 -20z"/>
<path d="M2950 580 c0 -15 6 -20 28 -19 16 1 20 3 10 6 -10 2 -18 11 -18 19 0
8 -4 14 -10 14 -5 0 -10 -9 -10 -20z"/>
<path d="M2293 510 c-17 -40 -18 -50 -7 -50 8 0 14 10 14 25 0 20 5 25 25 25
18 0 25 5 25 19 0 15 -18 31 -34 31 -1 0 -12 -22 -23 -50z"/>
<path d="M100 530 c0 -15 7 -20 25 -20 18 0 25 5 25 20 0 15 -7 20 -25 20 -18
0 -25 -5 -25 -20z"/>
<path d="M200 530 c0 -15 7 -20 25 -20 18 0 25 5 25 20 0 15 -7 20 -25 20 -18
0 -25 -5 -25 -20z"/>
<path d="M300 530 c0 -15 7 -20 25 -20 18 0 25 5 25 20 0 15 -7 20 -25 20 -18
0 -25 -5 -25 -20z"/>
<path d="M400 529 c0 -14 7 -19 25 -19 18 0 25 5 25 19 0 13 -7 19 -25 19 -18
0 -25 -6 -25 -19z"/>
<path d="M500 530 c0 -15 7 -20 25 -20 18 0 25 5 25 20 0 15 -7 20 -25 20 -18
0 -25 -5 -25 -20z"/>
<path d="M600 530 c0 -15 7 -20 25 -20 18 0 25 5 25 20 0 15 -7 20 -25 20 -18
0 -25 -5 -25 -20z"/>
<path d="M1200 529 c0 -13 -7 -19 -22 -19 -22 -1 -22 -1 -4 -12 15 -8 21 -8
24 0 2 7 15 12 28 12 17 0 24 6 24 19 0 13 -7 19 -25 19 -18 0 -25 -6 -25 -19z"/>
<path d="M1300 530 c0 -15 7 -20 25 -20 18 0 25 5 25 20 0 15 -7 20 -25 20
-18 0 -25 -5 -25 -20z"/>
<path d="M1400 530 c0 -15 7 -20 25 -20 18 0 25 5 25 20 0 15 -7 20 -25 20
-18 0 -25 -5 -25 -20z"/>
<path d="M1500 530 c0 -15 7 -20 25 -20 18 0 25 5 25 20 0 15 -7 20 -25 20
-18 0 -25 -5 -25 -20z"/>
<path d="M1600 529 c0 -14 7 -19 25 -19 18 0 25 5 25 19 0 13 -7 19 -25 19
-18 0 -25 -6 -25 -19z"/>
<path d="M1700 530 c0 -15 7 -20 25 -20 18 0 25 -5 25 -19 0 -14 5 -18 21 -14
11 3 23 12 26 19 3 8 16 14 29 14 17 0 24 6 24 20 0 15 -7 20 -25 20 -18 0
-25 -5 -25 -19 0 -10 -9 -21 -19 -24 -24 -6 -31 0 -31 25 0 13 -7 18 -25 18
-18 0 -25 -5 -25 -20z"/>
<path d="M2400 529 c0 -14 7 -19 25 -19 18 0 25 5 25 19 0 13 -7 19 -25 19
-18 0 -25 -6 -25 -19z"/>
<path d="M2500 530 c0 -15 7 -20 25 -20 18 0 25 5 25 20 0 15 -7 20 -25 20
-18 0 -25 -5 -25 -20z"/>
<path d="M2600 530 c0 -15 7 -20 25 -20 18 0 25 5 25 20 0 15 -7 20 -25 20
-18 0 -25 -5 -25 -20z"/>
<path d="M2700 530 c0 -15 7 -20 25 -20 18 0 25 5 25 20 0 15 -7 20 -25 20
-18 0 -25 -5 -25 -20z"/>
<path d="M2800 529 c0 -14 7 -19 25 -19 18 0 25 5 25 19 0 13 -7 19 -25 19
-18 0 -25 -6 -25 -19z"/>
<path d="M2900 530 c0 -15 7 -20 25 -20 18 0 25 5 25 20 0 15 -7 20 -25 20
-18 0 -25 -5 -25 -20z"/>
<path d="M678 507 c-36 -14 -38 -47 -4 -47 19 0 25 6 28 30 3 17 4 30 4 29 -1
-1 -13 -6 -28 -12z"/>
<path d="M50 480 c0 -15 7 -20 25 -20 18 0 25 5 25 20 0 15 -7 20 -25 20 -18
0 -25 -5 -25 -20z"/>
<path d="M150 480 c0 -15 7 -20 25 -20 18 0 25 5 25 20 0 15 -7 20 -25 20 -18
0 -25 -5 -25 -20z"/>
<path d="M250 480 c0 -15 7 -20 25 -20 18 0 25 5 25 20 0 15 -7 20 -25 20 -18
0 -25 -5 -25 -20z"/>
<path d="M350 480 c0 -15 7 -20 25 -20 18 0 25 5 25 20 0 15 -7 20 -25 20 -18
0 -25 -5 -25 -20z"/>
<path d="M450 480 c0 -15 7 -20 25 -20 18 0 25 5 25 20 0 15 -7 20 -25 20 -18
0 -25 -5 -25 -20z"/>
<path d="M550 480 c0 -15 7 -20 25 -20 18 0 25 5 25 20 0 15 -7 20 -25 20 -18
0 -25 -5 -25 -20z"/>
<path d="M875 491 c-3 -5 12 -23 32 -40 36 -30 38 -30 41 -11 2 14 11 20 28
20 19 0 24 -5 24 -25 0 -18 5 -25 20 -25 18 0 19 3 10 21 -6 11 -26 29 -43 40
-27 16 -32 17 -35 4 -2 -8 -14 -15 -28 -15 -17 0 -24 5 -24 20 0 21 -14 27
-25 11z"/>
<path d="M1250 485 c0 -9 9 -15 25 -15 16 0 25 6 25 15 0 9 -9 15 -25 15 -16
0 -25 -6 -25 -15z"/>
<path d="M1350 480 c0 -15 7 -20 25 -20 18 0 25 5 25 20 0 15 -7 20 -25 20
-18 0 -25 -5 -25 -20z"/>
<path d="M1450 480 c0 -15 7 -20 25 -20 18 0 25 5 25 20 0 15 -7 20 -25 20
-18 0 -25 -5 -25 -20z"/>
<path d="M1550 480 c0 -15 7 -20 25 -20 18 0 25 5 25 20 0 15 -7 20 -25 20
-18 0 -25 -5 -25 -20z"/>
<path d="M1650 480 c0 -15 7 -20 25 -20 18 0 25 5 25 20 0 15 -7 20 -25 20
-18 0 -25 -5 -25 -20z"/>
<path d="M2350 480 c0 -15 7 -20 25 -20 18 0 25 5 25 20 0 15 -7 20 -25 20
-18 0 -25 -5 -25 -20z"/>
<path d="M2450 480 c0 -15 7 -20 25 -20 18 0 25 5 25 20 0 15 -7 20 -25 20
-18 0 -25 -5 -25 -20z"/>
<path d="M2550 480 c0 -15 7 -20 25 -20 18 0 25 5 25 20 0 15 -7 20 -25 20
-18 0 -25 -5 -25 -20z"/>
<path d="M2650 480 c0 -15 7 -20 25 -20 18 0 25 5 25 20 0 15 -7 20 -25 20
-18 0 -25 -5 -25 -20z"/>
<path d="M2750 480 c0 -15 7 -20 25 -20 18 0 25 5 25 20 0 15 -7 20 -25 20
-18 0 -25 -5 -25 -20z"/>
<path d="M2850 480 c0 -15 7 -20 25 -20 18 0 25 5 25 20 0 15 -7 20 -25 20
-18 0 -25 -5 -25 -20z"/>
<path d="M100 430 c0 -15 7 -20 25 -20 18 0 25 5 25 20 0 15 -7 20 -25 20 -18
0 -25 -5 -25 -20z"/>
<path d="M200 430 c0 -15 7 -20 25 -20 18 0 25 5 25 20 0 15 -7 20 -25 20 -18
0 -25 -5 -25 -20z"/>
<path d="M300 430 c0 -15 7 -20 25 -20 18 0 25 5 25 20 0 15 -7 20 -25 20 -18
0 -25 -5 -25 -20z"/>
<path d="M400 430 c0 -15 7 -20 25 -20 18 0 25 5 25 20 0 15 -7 20 -25 20 -18
0 -25 -5 -25 -20z"/>
<path d="M500 430 c0 -15 7 -20 25 -20 18 0 25 5 25 20 0 15 -7 20 -25 20 -18
0 -25 -5 -25 -20z"/>
<path d="M600 430 c0 -15 7 -20 25 -20 18 0 25 5 25 20 0 15 -7 20 -25 20 -18
0 -25 -5 -25 -20z"/>
<path d="M700 430 c0 -15 7 -20 25 -20 20 0 25 -5 25 -25 0 -18 5 -25 20 -25
18 0 18 3 -8 45 -28 47 -62 60 -62 25z"/>
<path d="M1400 430 c0 -15 7 -20 25 -20 18 0 25 5 25 20 0 15 -7 20 -25 20
-18 0 -25 -5 -25 -20z"/>
<path d="M1500 430 c0 -15 7 -20 25 -20 18 0 25 5 25 20 0 15 -7 20 -25 20
-18 0 -25 -5 -25 -20z"/>
<path d="M1600 430 c0 -15 7 -20 25 -20 18 0 25 5 25 20 0 15 -7 20 -25 20
-18 0 -25 -5 -25 -20z"/>
<path d="M2300 430 c0 -15 7 -20 25 -20 18 0 25 5 25 20 0 15 -7 20 -25 20
-18 0 -25 -5 -25 -20z"/>
<path d="M2400 430 c0 -15 7 -20 25 -20 18 0 25 5 25 20 0 15 -7 20 -25 20
-18 0 -25 -5 -25 -20z"/>
<path d="M2500 430 c0 -15 7 -20 25 -20 18 0 25 5 25 20 0 15 -7 20 -25 20
-18 0 -25 -5 -25 -20z"/>
<path d="M2600 430 c0 -15 7 -20 25 -20 18 0 25 5 25 20 0 15 -7 20 -25 20
-18 0 -25 -5 -25 -20z"/>
<path d="M2700 430 c0 -15 7 -20 25 -20 18 0 25 5 25 20 0 15 -7 20 -25 20
-18 0 -25 -5 -25 -20z"/>
<path d="M2800 430 c0 -15 7 -20 25 -20 18 0 25 5 25 20 0 15 -7 20 -25 20
-18 0 -25 -5 -25 -20z"/>
<path d="M2900 430 c0 -15 7 -20 25 -20 18 0 25 5 25 20 0 15 -7 20 -25 20
-18 0 -25 -5 -25 -20z"/>
<path d="M2248 390 c3 -24 9 -30 28 -30 17 0 24 6 24 20 0 13 -7 20 -18 20
-10 0 -23 5 -28 10 -7 7 -9 1 -6 -20z"/>
<path d="M960 402 c0 -5 9 -17 19 -29 10 -11 21 -29 23 -39 5 -27 48 -32 48
-5 0 13 -8 21 -22 23 -13 2 -24 11 -27 23 -4 26 -41 50 -41 27z"/>
<path d="M1668 402 c-10 -2 -18 -12 -18 -23 0 -14 7 -19 25 -19 25 0 32 15 17
35 -4 6 -15 9 -24 7z"/>
<path d="M50 380 c0 -15 7 -20 25 -20 18 0 25 5 25 20 0 15 -7 20 -25 20 -18
0 -25 -5 -25 -20z"/>
<path d="M150 380 c0 -15 7 -20 25 -20 18 0 25 5 25 20 0 15 -7 20 -25 20 -18
0 -25 -5 -25 -20z"/>
<path d="M250 380 c0 -15 7 -20 25 -20 18 0 25 5 25 20 0 15 -7 20 -25 20 -18
0 -25 -5 -25 -20z"/>
<path d="M350 380 c0 -15 7 -20 25 -20 18 0 25 5 25 20 0 15 -7 20 -25 20 -18
0 -25 -5 -25 -20z"/>
<path d="M450 380 c0 -15 7 -20 25 -20 18 0 25 5 25 20 0 15 -7 20 -25 20 -18
0 -25 -5 -25 -20z"/>
<path d="M550 380 c0 -15 7 -20 25 -20 18 0 25 5 25 20 0 15 -7 20 -25 20 -18
0 -25 -5 -25 -20z"/>
<path d="M650 380 c0 -15 7 -20 25 -20 18 0 25 5 25 20 0 15 -7 20 -25 20 -18
0 -25 -5 -25 -20z"/>
<path d="M1350 380 c0 -15 7 -20 25 -20 18 0 25 5 25 20 0 15 -7 20 -25 20
-18 0 -25 -5 -25 -20z"/>
<path d="M1450 380 c0 -15 7 -20 25 -20 18 0 25 5 25 20 0 15 -7 20 -25 20
-18 0 -25 -5 -25 -20z"/>
<path d="M1550 380 c0 -15 7 -20 25 -20 18 0 25 5 25 20 0 15 -7 20 -25 20
-18 0 -25 -5 -25 -20z"/>
<path d="M2350 380 c0 -15 7 -20 25 -20 18 0 25 5 25 20 0 15 -7 20 -25 20
-18 0 -25 -5 -25 -20z"/>
<path d="M2450 380 c0 -15 7 -20 25 -20 18 0 25 5 25 20 0 15 -7 20 -25 20
-18 0 -25 -5 -25 -20z"/>
<path d="M2550 380 c0 -15 7 -20 25 -20 18 0 25 5 25 20 0 15 -7 20 -25 20
-18 0 -25 -5 -25 -20z"/>
<path d="M2650 380 c0 -15 7 -20 25 -20 18 0 25 5 25 20 0 15 -7 20 -25 20
-18 0 -25 -5 -25 -20z"/>
<path d="M2750 380 c0 -15 7 -20 25 -20 18 0 25 5 25 20 0 15 -7 20 -25 20
-18 0 -25 -5 -25 -20z"/>
<path d="M2850 380 c0 -15 7 -20 25 -20 18 0 25 5 25 20 0 15 -7 20 -25 20
-18 0 -25 -5 -25 -20z"/>
<path d="M1298 340 c3 -24 9 -30 28 -30 17 0 24 6 24 20 0 13 -7 20 -18 20
-10 0 -23 5 -28 10 -7 7 -9 1 -6 -20z"/>
<path d="M2206 352 c-3 -3 -6 -14 -6 -24 0 -13 7 -18 25 -18 18 0 25 5 25 19
0 18 -33 35 -44 23z"/>
<path d="M100 330 c0 -15 7 -20 25 -20 18 0 25 5 25 20 0 15 -7 20 -25 20 -18
0 -25 -5 -25 -20z"/>
<path d="M200 330 c0 -15 7 -20 25 -20 18 0 25 5 25 20 0 15 -7 20 -25 20 -18
0 -25 -5 -25 -20z"/>
<path d="M300 330 c0 -15 7 -20 25 -20 18 0 25 5 25 20 0 15 -7 20 -25 20 -18
0 -25 -5 -25 -20z"/>
<path d="M400 330 c0 -15 7 -20 25 -20 18 0 25 5 25 20 0 15 -7 20 -25 20 -18
0 -25 -5 -25 -20z"/>
<path d="M500 330 c0 -15 7 -20 25 -20 18 0 25 5 25 20 0 15 -7 20 -25 20 -18
0 -25 -5 -25 -20z"/>
<path d="M600 330 c0 -15 7 -20 25 -20 18 0 25 5 25 20 0 15 -7 20 -25 20 -18
0 -25 -5 -25 -20z"/>
<path d="M700 330 c0 -15 7 -20 25 -20 18 0 25 5 25 20 0 15 -7 20 -25 20 -18
0 -25 -5 -25 -20z"/>
<path d="M1400 330 c0 -15 7 -20 25 -20 18 0 25 5 25 20 0 15 -7 20 -25 20
-18 0 -25 -5 -25 -20z"/>
<path d="M1500 330 c0 -15 7 -20 25 -20 18 0 25 5 25 20 0 15 -7 20 -25 20
-18 0 -25 -5 -25 -20z"/>
<path d="M1600 330 c0 -15 7 -20 25 -20 18 0 25 5 25 20 0 15 -7 20 -25 20
-18 0 -25 -5 -25 -20z"/>
<path d="M1698 328 c-2 -15 -11 -24 -25 -26 -33 -5 -31 -42 1 -42 19 0 25 -6
28 -27 2 -16 4 5 4 45 0 74 -2 88 -8 50z"/>
<path d="M2300 330 c0 -15 7 -20 25 -20 18 0 25 5 25 20 0 15 -7 20 -25 20
-18 0 -25 -5 -25 -20z"/>
<path d="M2400 330 c0 -15 7 -20 25 -20 18 0 25 5 25 20 0 15 -7 20 -25 20
-18 0 -25 -5 -25 -20z"/>
<path d="M2500 330 c0 -15 7 -20 25 -20 18 0 25 5 25 20 0 15 -7 20 -25 20
-18 0 -25 -5 -25 -20z"/>
<path d="M2600 330 c0 -15 7 -20 25 -20 18 0 25 5 25 20 0 15 -7 20 -25 20
-18 0 -25 -5 -25 -20z"/>
<path d="M2700 330 c0 -15 7 -20 25 -20 18 0 25 5 25 20 0 15 -7 20 -25 20
-18 0 -25 -5 -25 -20z"/>
<path d="M2800 330 c0 -15 7 -20 25 -20 18 0 25 5 25 20 0 15 -7 20 -25 20
-18 0 -25 -5 -25 -20z"/>
<path d="M2900 330 c0 -15 7 -20 25 -20 18 0 25 5 25 20 0 15 -7 20 -25 20
-18 0 -25 -5 -25 -20z"/>
<path d="M1100 325 c0 -10 10 -15 28 -15 26 1 26 1 8 15 -25 19 -36 19 -36 0z"/>
<path d="M2160 290 c-14 -27 -13 -30 15 -30 18 0 25 5 25 19 0 27 -27 34 -40
11z"/>
<path d="M50 280 c0 -15 7 -20 25 -20 18 0 25 5 25 20 0 15 -7 20 -25 20 -18
0 -25 -5 -25 -20z"/>
<path d="M150 280 c0 -15 7 -20 25 -20 18 0 25 5 25 20 0 15 -7 20 -25 20 -18
0 -25 -5 -25 -20z"/>
<path d="M250 280 c0 -15 7 -20 25 -20 18 0 25 5 25 20 0 15 -7 20 -25 20 -18
0 -25 -5 -25 -20z"/>
<path d="M350 280 c0 -15 7 -20 25 -20 18 0 25 5 25 20 0 15 -7 20 -25 20 -18
0 -25 -5 -25 -20z"/>
<path d="M450 280 c0 -15 7 -20 25 -20 18 0 25 5 25 20 0 15 -7 20 -25 20 -18
0 -25 -5 -25 -20z"/>
<path d="M550 280 c0 -15 7 -20 25 -20 18 0 25 5 25 20 0 15 -7 20 -25 20 -18
0 -25 -5 -25 -20z"/>
<path d="M650 280 c0 -15 7 -20 25 -20 18 0 25 5 25 20 0 15 -7 20 -25 20 -18
0 -25 -5 -25 -20z"/>
<path d="M750 280 c0 -15 7 -20 25 -20 18 0 25 5 25 20 0 15 -7 20 -25 20 -18
0 -25 -5 -25 -20z"/>
<path d="M1050 280 c0 -15 7 -20 25 -20 18 0 25 5 25 20 0 15 -7 20 -25 20
-18 0 -25 -5 -25 -20z"/>
<path d="M1150 280 c0 -15 7 -20 25 -20 18 0 25 5 25 20 0 15 -7 20 -25 20
-18 0 -25 -5 -25 -20z"/>
<path d="M1250 280 c0 -15 7 -20 25 -20 18 0 25 5 25 20 0 15 -7 20 -25 20
-18 0 -25 -5 -25 -20z"/>
<path d="M1350 280 c0 -15 7 -20 25 -20 18 0 25 5 25 20 0 15 -7 20 -25 20
-18 0 -25 -5 -25 -20z"/>
<path d="M1450 280 c0 -15 7 -20 25 -20 18 0 25 5 25 20 0 15 -7 20 -25 20
-18 0 -25 -5 -25 -20z"/>
<path d="M1550 280 c0 -15 7 -20 25 -20 18 0 25 5 25 20 0 15 -7 20 -25 20
-18 0 -25 -5 -25 -20z"/>
<path d="M2250 280 c0 -15 7 -20 25 -20 18 0 25 5 25 20 0 15 -7 20 -25 20
-18 0 -25 -5 -25 -20z"/>
<path d="M2350 280 c0 -15 7 -20 25 -20 18 0 25 5 25 20 0 15 -7 20 -25 20
-18 0 -25 -5 -25 -20z"/>
<path d="M2450 280 c0 -15 7 -20 25 -20 18 0 25 5 25 20 0 15 -7 20 -25 20
-18 0 -25 -5 -25 -20z"/>
<path d="M2550 280 c0 -15 7 -20 25 -20 18 0 25 5 25 20 0 15 -7 20 -25 20
-18 0 -25 -5 -25 -20z"/>
<path d="M2650 280 c0 -15 7 -20 25 -20 18 0 25 5 25 20 0 15 -7 20 -25 20
-18 0 -25 -5 -25 -20z"/>
<path d="M2750 280 c0 -15 7 -20 25 -20 18 0 25 5 25 20 0 15 -7 20 -25 20
-18 0 -25 -5 -25 -20z"/>
<path d="M2850 280 c0 -15 7 -20 25 -20 18 0 25 5 25 20 0 15 -7 20 -25 20
-18 0 -25 -5 -25 -20z"/>
<path d="M100 230 c0 -15 7 -20 25 -20 18 0 25 5 25 20 0 15 -7 20 -25 20 -18
0 -25 -5 -25 -20z"/>
<path d="M200 230 c0 -15 7 -20 25 -20 18 0 25 5 25 20 0 15 -7 20 -25 20 -18
0 -25 -5 -25 -20z"/>
<path d="M300 230 c0 -15 7 -20 25 -20 18 0 25 5 25 20 0 15 -7 20 -25 20 -18
0 -25 -5 -25 -20z"/>
<path d="M400 230 c0 -15 7 -20 25 -20 18 0 25 5 25 20 0 15 -7 20 -25 20 -18
0 -25 -5 -25 -20z"/>
<path d="M500 230 c0 -15 7 -20 25 -20 18 0 25 5 25 20 0 15 -7 20 -25 20 -18
0 -25 -5 -25 -20z"/>
<path d="M600 230 c0 -15 7 -20 25 -20 18 0 25 5 25 20 0 15 -7 20 -25 20 -18
0 -25 -5 -25 -20z"/>
<path d="M700 230 c0 -15 7 -20 25 -20 18 0 25 5 25 20 0 15 -7 20 -25 20 -18
0 -25 -5 -25 -20z"/>
<path d="M800 230 c0 -15 7 -20 25 -20 18 0 25 5 25 20 0 15 -7 20 -25 20 -18
0 -25 -5 -25 -20z"/>
<path d="M1100 240 c0 -5 4 -10 9 -10 5 0 16 -3 25 -6 11 -4 16 -1 16 10 0 10
-9 16 -25 16 -14 0 -25 -4 -25 -10z"/>
<path d="M1200 235 c0 -9 9 -15 25 -15 16 0 25 6 25 15 0 9 -9 15 -25 15 -16
0 -25 -6 -25 -15z"/>
<path d="M1295 209 c-4 -22 -4 -43 -1 -46 3 -4 6 6 6 20 0 22 5 27 25 27 18 0
25 5 25 20 0 14 -7 20 -24 20 -21 0 -25 -6 -31 -41z"/>
<path d="M1400 230 c0 -15 7 -20 25 -20 18 0 25 5 25 20 0 15 -7 20 -25 20
-18 0 -25 -5 -25 -20z"/>
<path d="M1500 230 c0 -15 7 -20 25 -20 18 0 25 5 25 20 0 15 -7 20 -25 20
-18 0 -25 -5 -25 -20z"/>
<path d="M1600 230 c0 -15 7 -20 25 -20 18 0 25 5 25 20 0 15 -7 20 -25 20
-18 0 -25 -5 -25 -20z"/>
<path d="M2112 238 c-19 -19 -14 -28 13 -28 18 0 25 5 25 20 0 22 -20 26 -38
8z"/>
<path d="M2200 230 c0 -15 7 -20 25 -20 18 0 25 5 25 20 0 15 -7 20 -25 20
-18 0 -25 -5 -25 -20z"/>
<path d="M2300 230 c0 -15 7 -20 25 -20 18 0 25 5 25 20 0 15 -7 20 -25 20
-18 0 -25 -5 -25 -20z"/>
<path d="M2400 230 c0 -15 7 -20 25 -20 18 0 25 5 25 20 0 15 -7 20 -25 20
-18 0 -25 -5 -25 -20z"/>
<path d="M2500 230 c0 -15 7 -20 25 -20 18 0 25 5 25 20 0 15 -7 20 -25 20
-18 0 -25 -5 -25 -20z"/>
<path d="M2600 230 c0 -15 7 -20 25 -20 18 0 25 5 25 20 0 15 -7 20 -25 20
-18 0 -25 -5 -25 -20z"/>
<path d="M2700 230 c0 -15 7 -20 25 -20 18 0 25 5 25 20 0 15 -7 20 -25 20
-18 0 -25 -5 -25 -20z"/>
<path d="M2800 230 c0 -15 7 -20 25 -20 18 0 25 5 25 20 0 15 -7 20 -25 20
-18 0 -25 -5 -25 -20z"/>
<path d="M2900 230 c0 -15 7 -20 25 -20 18 0 25 5 25 20 0 15 -7 20 -25 20
-18 0 -25 -5 -25 -20z"/>
<path d="M895 210 c-3 -5 -15 -10 -26 -10 -12 0 -19 -7 -19 -20 0 -14 7 -20
24 -20 19 0 25 6 28 30 5 32 3 36 -7 20z"/>
<path d="M50 180 c0 -15 7 -20 25 -20 18 0 25 5 25 20 0 15 -7 20 -25 20 -18
0 -25 -5 -25 -20z"/>
<path d="M150 180 c0 -15 7 -20 25 -20 18 0 25 5 25 20 0 15 -7 20 -25 20 -18
0 -25 -5 -25 -20z"/>
<path d="M250 180 c0 -15 7 -20 25 -20 18 0 25 5 25 20 0 15 -7 20 -25 20 -18
0 -25 -5 -25 -20z"/>
<path d="M350 180 c0 -15 7 -20 25 -20 18 0 25 5 25 20 0 15 -7 20 -25 20 -18
0 -25 -5 -25 -20z"/>
<path d="M450 180 c0 -15 7 -20 25 -20 18 0 25 5 25 20 0 15 -7 20 -25 20 -18
0 -25 -5 -25 -20z"/>
<path d="M550 180 c0 -15 7 -20 25 -20 18 0 25 5 25 20 0 15 -7 20 -25 20 -18
0 -25 -5 -25 -20z"/>
<path d="M650 180 c0 -15 7 -20 25 -20 18 0 25 5 25 20 0 15 -7 20 -25 20 -18
0 -25 -5 -25 -20z"/>
<path d="M750 180 c0 -15 7 -20 25 -20 18 0 25 5 25 20 0 15 -7 20 -25 20 -18
0 -25 -5 -25 -20z"/>
<path d="M1350 180 c0 -15 7 -20 25 -20 18 0 25 5 25 20 0 15 -7 20 -25 20
-18 0 -25 -5 -25 -20z"/>
<path d="M1450 180 c0 -15 7 -20 25 -20 18 0 25 5 25 20 0 15 -7 20 -25 20
-18 0 -25 -5 -25 -20z"/>
<path d="M1550 180 c0 -15 7 -20 25 -20 18 0 25 5 25 20 0 15 -7 20 -25 20
-18 0 -25 -5 -25 -20z"/>
<path d="M1650 180 c0 -15 7 -20 25 -20 20 0 25 -5 25 -27 0 -14 3 -24 6 -20
3 3 3 24 -1 46 -6 35 -10 41 -31 41 -17 0 -24 -6 -24 -20z"/>
<path d="M2062 188 c-19 -19 -14 -28 13 -28 18 0 25 5 25 20 0 22 -20 26 -38
8z"/>
<path d="M2150 180 c0 -15 7 -20 25 -20 18 0 25 5 25 20 0 15 -7 20 -25 20
-18 0 -25 -5 -25 -20z"/>
<path d="M2250 180 c0 -15 7 -20 25 -20 18 0 25 5 25 20 0 15 -7 20 -25 20
-18 0 -25 -5 -25 -20z"/>
<path d="M2350 180 c0 -15 7 -20 25 -20 18 0 25 5 25 20 0 15 -7 20 -25 20
-18 0 -25 -5 -25 -20z"/>
<path d="M2450 180 c0 -15 7 -20 25 -20 18 0 25 5 25 20 0 15 -7 20 -25 20
-18 0 -25 -5 -25 -20z"/>
<path d="M2550 180 c0 -15 7 -20 25 -20 18 0 25 5 25 20 0 15 -7 20 -25 20
-18 0 -25 -5 -25 -20z"/>
<path d="M2650 180 c0 -15 7 -20 25 -20 18 0 25 5 25 20 0 15 -7 20 -25 20
-18 0 -25 -5 -25 -20z"/>
<path d="M2750 180 c0 -15 7 -20 25 -20 18 0 25 5 25 20 0 15 -7 20 -25 20
-18 0 -25 -5 -25 -20z"/>
<path d="M2850 180 c0 -15 7 -20 25 -20 18 0 25 5 25 20 0 15 -7 20 -25 20
-18 0 -25 -5 -25 -20z"/>
<path d="M100 130 c0 -15 7 -20 25 -20 18 0 25 5 25 20 0 15 -7 20 -25 20 -18
0 -25 -5 -25 -20z"/>
<path d="M200 130 c0 -15 7 -20 25 -20 18 0 25 5 25 20 0 15 -7 20 -25 20 -18
0 -25 -5 -25 -20z"/>
<path d="M300 130 c0 -15 7 -20 25 -20 18 0 25 5 25 20 0 15 -7 20 -25 20 -18
0 -25 -5 -25 -20z"/>
<path d="M400 130 c0 -15 7 -20 25 -20 18 0 25 5 25 20 0 15 -7 20 -25 20 -18
0 -25 -5 -25 -20z"/>
<path d="M500 130 c0 -15 7 -20 25 -20 18 0 25 5 25 20 0 15 -7 20 -25 20 -18
0 -25 -5 -25 -20z"/>
<path d="M600 130 c0 -15 7 -20 25 -20 18 0 25 5 25 20 0 15 -7 20 -25 20 -18
0 -25 -5 -25 -20z"/>
<path d="M700 130 c0 -15 7 -20 25 -20 18 0 25 5 25 20 0 15 -7 20 -25 20 -18
0 -25 -5 -25 -20z"/>
<path d="M800 130 c0 -15 7 -20 25 -20 18 0 25 5 25 20 0 15 -7 20 -25 20 -18
0 -25 -5 -25 -20z"/>
<path d="M900 130 c0 -15 7 -20 25 -20 18 0 25 5 25 20 0 15 -7 20 -25 20 -18
0 -25 -5 -25 -20z"/>
<path d="M1295 109 c-4 -22 -4 -43 -1 -46 3 -4 6 6 6 20 0 22 5 27 25 27 18 0
25 5 25 20 0 14 -7 20 -24 20 -21 0 -25 -6 -31 -41z"/>
<path d="M1400 130 c0 -15 7 -20 25 -20 18 0 25 5 25 20 0 15 -7 20 -25 20
-18 0 -25 -5 -25 -20z"/>
<path d="M1500 130 c0 -15 7 -20 25 -20 18 0 25 5 25 20 0 15 -7 20 -25 20
-18 0 -25 -5 -25 -20z"/>
<path d="M1600 130 c0 -15 7 -20 25 -20 18 0 25 5 25 20 0 15 -7 20 -25 20
-18 0 -25 -5 -25 -20z"/>
<path d="M2007 143 c-16 -15 -6 -33 18 -33 18 0 25 5 25 20 0 20 -28 28 -43
13z"/>
<path d="M2100 130 c0 -15 7 -20 25 -20 18 0 25 5 25 20 0 15 -7 20 -25 20
-18 0 -25 -5 -25 -20z"/>
<path d="M2200 130 c0 -15 7 -20 25 -20 18 0 25 5 25 20 0 15 -7 20 -25 20
-18 0 -25 -5 -25 -20z"/>
<path d="M2300 130 c0 -15 7 -20 25 -20 18 0 25 5 25 20 0 15 -7 20 -25 20
-18 0 -25 -5 -25 -20z"/>
<path d="M2400 130 c0 -15 7 -20 25 -20 18 0 25 5 25 20 0 15 -7 20 -25 20
-18 0 -25 -5 -25 -20z"/>
<path d="M2500 130 c0 -15 7 -20 25 -20 18 0 25 5 25 20 0 15 -7 20 -25 20
-18 0 -25 -5 -25 -20z"/>
<path d="M2600 130 c0 -15 7 -20 25 -20 18 0 25 5 25 20 0 15 -7 20 -25 20
-18 0 -25 -5 -25 -20z"/>
<path d="M2700 130 c0 -15 7 -20 25 -20 18 0 25 5 25 20 0 15 -7 20 -25 20
-18 0 -25 -5 -25 -20z"/>
<path d="M2800 130 c0 -15 7 -20 25 -20 18 0 25 5 25 20 0 15 -7 20 -25 20
-18 0 -25 -5 -25 -20z"/>
<path d="M2900 130 c0 -15 7 -20 25 -20 18 0 25 5 25 20 0 15 -7 20 -25 20
-18 0 -25 -5 -25 -20z"/>
<path d="M1950 84 c0 -19 5 -24 25 -24 18 0 25 5 25 19 0 12 -9 20 -25 23 -21
4 -25 1 -25 -18z"/>
<path d="M50 80 c0 -15 7 -20 25 -20 18 0 25 5 25 20 0 15 -7 20 -25 20 -18 0
-25 -5 -25 -20z"/>
<path d="M150 80 c0 -15 7 -20 25 -20 18 0 25 5 25 20 0 15 -7 20 -25 20 -18
0 -25 -5 -25 -20z"/>
<path d="M250 80 c0 -15 7 -20 25 -20 18 0 25 5 25 20 0 15 -7 20 -25 20 -18
0 -25 -5 -25 -20z"/>
<path d="M350 80 c0 -15 7 -20 25 -20 18 0 25 5 25 20 0 15 -7 20 -25 20 -18
0 -25 -5 -25 -20z"/>
<path d="M450 80 c0 -15 7 -20 25 -20 18 0 25 5 25 20 0 15 -7 20 -25 20 -18
0 -25 -5 -25 -20z"/>
<path d="M550 80 c0 -15 7 -20 25 -20 18 0 25 5 25 20 0 15 -7 20 -25 20 -18
0 -25 -5 -25 -20z"/>
<path d="M650 80 c0 -15 7 -20 25 -20 18 0 25 5 25 20 0 15 -7 20 -25 20 -18
0 -25 -5 -25 -20z"/>
<path d="M750 80 c0 -15 7 -20 25 -20 18 0 25 5 25 20 0 15 -7 20 -25 20 -18
0 -25 -5 -25 -20z"/>
<path d="M850 80 c0 -15 7 -20 25 -20 18 0 25 5 25 20 0 15 -7 20 -25 20 -18
0 -25 -5 -25 -20z"/>
<path d="M950 80 c0 -15 7 -20 25 -20 18 0 25 5 25 20 0 15 -7 20 -25 20 -18
0 -25 -5 -25 -20z"/>
<path d="M1050 80 c0 -15 7 -20 25 -20 29 0 32 8 8 26 -25 19 -33 17 -33 -6z"/>
<path d="M1350 80 c0 -15 7 -20 25 -20 18 0 25 5 25 20 0 15 -7 20 -25 20 -18
0 -25 -5 -25 -20z"/>
<path d="M1450 80 c0 -15 7 -20 25 -20 18 0 25 5 25 20 0 15 -7 20 -25 20 -18
0 -25 -5 -25 -20z"/>
<path d="M1550 80 c0 -15 7 -20 25 -20 18 0 25 5 25 20 0 15 -7 20 -25 20 -18
0 -25 -5 -25 -20z"/>
<path d="M1650 80 c0 -15 7 -20 25 -20 18 0 25 5 25 20 0 15 -7 20 -25 20 -18
0 -25 -5 -25 -20z"/>
<path d="M2050 80 c0 -15 7 -20 25 -20 18 0 25 5 25 20 0 15 -7 20 -25 20 -18
0 -25 -5 -25 -20z"/>
<path d="M2150 80 c0 -15 7 -20 25 -20 18 0 25 5 25 20 0 15 -7 20 -25 20 -18
0 -25 -5 -25 -20z"/>
<path d="M2250 80 c0 -15 7 -20 25 -20 18 0 25 5 25 20 0 15 -7 20 -25 20 -18
0 -25 -5 -25 -20z"/>
<path d="M2350 80 c0 -15 7 -20 25 -20 18 0 25 5 25 20 0 15 -7 20 -25 20 -18
0 -25 -5 -25 -20z"/>
<path d="M2450 80 c0 -15 7 -20 25 -20 18 0 25 5 25 20 0 15 -7 20 -25 20 -18
0 -25 -5 -25 -20z"/>
<path d="M2550 80 c0 -15 7 -20 25 -20 18 0 25 5 25 20 0 15 -7 20 -25 20 -18
0 -25 -5 -25 -20z"/>
<path d="M2650 80 c0 -15 7 -20 25 -20 18 0 25 5 25 20 0 15 -7 20 -25 20 -18
0 -25 -5 -25 -20z"/>
<path d="M2750 80 c0 -15 7 -20 25 -20 18 0 25 5 25 20 0 15 -7 20 -25 20 -18
0 -25 -5 -25 -20z"/>
<path d="M2850 80 c0 -15 7 -20 25 -20 18 0 25 5 25 20 0 15 -7 20 -25 20 -18
0 -25 -5 -25 -20z"/>
<path d="M100 28 c1 -21 2 -21 13 -6 12 15 14 15 24 0 11 -15 12 -14 12 6 1
17 -5 22 -24 22 -19 0 -25 -5 -25 -22z"/>
<path d="M200 28 c1 -21 2 -21 13 -6 12 15 14 15 24 0 11 -15 12 -14 12 6 1
17 -5 22 -24 22 -19 0 -25 -5 -25 -22z"/>
<path d="M300 28 c1 -21 2 -21 13 -6 12 15 14 15 24 0 11 -15 12 -14 12 6 1
17 -5 22 -24 22 -19 0 -25 -5 -25 -22z"/>
<path d="M400 28 c1 -21 2 -21 13 -6 12 15 14 15 24 0 11 -15 12 -14 12 6 1
17 -5 22 -24 22 -19 0 -25 -5 -25 -22z"/>
<path d="M500 28 c1 -21 2 -21 13 -6 12 15 14 15 24 0 11 -15 12 -14 12 6 1
17 -5 22 -24 22 -19 0 -25 -5 -25 -22z"/>
<path d="M600 28 c1 -21 2 -21 13 -6 12 15 14 15 24 0 11 -15 12 -14 12 6 1
17 -5 22 -24 22 -19 0 -25 -5 -25 -22z"/>
<path d="M700 28 c1 -21 2 -21 13 -6 12 15 14 15 24 0 11 -15 12 -14 12 6 1
17 -5 22 -24 22 -19 0 -25 -5 -25 -22z"/>
<path d="M800 28 c1 -21 2 -21 13 -6 12 15 14 15 24 0 11 -15 12 -14 12 6 1
17 -5 22 -24 22 -19 0 -25 -5 -25 -22z"/>
<path d="M900 28 c1 -21 2 -21 13 -6 12 15 14 15 24 0 11 -15 12 -14 12 6 1
17 -5 22 -24 22 -19 0 -25 -5 -25 -22z"/>
<path d="M1000 28 c1 -21 2 -21 13 -6 12 15 14 15 24 0 11 -15 12 -14 12 6 1
17 -5 22 -24 22 -19 0 -25 -5 -25 -22z"/>
<path d="M1100 28 c1 -22 1 -23 15 -4 13 17 15 18 15 3 0 -9 5 -17 10 -17 6 0
10 9 10 20 0 15 -7 20 -25 20 -19 0 -25 -5 -25 -22z"/>
<path d="M1300 28 c1 -21 2 -21 13 -6 12 15 14 15 24 0 11 -15 12 -14 12 6 1
17 -5 22 -24 22 -19 0 -25 -5 -25 -22z"/>
<path d="M1400 28 c1 -21 2 -21 13 -6 12 15 14 15 24 0 11 -15 12 -14 12 6 1
17 -5 22 -24 22 -19 0 -25 -5 -25 -22z"/>
<path d="M1500 28 c1 -21 2 -21 13 -6 12 15 14 15 24 0 11 -15 12 -14 12 6 1
17 -5 22 -24 22 -19 0 -25 -5 -25 -22z"/>
<path d="M1600 28 c1 -21 2 -21 13 -6 12 15 14 15 24 0 11 -15 12 -14 12 6 1
17 -5 22 -24 22 -19 0 -25 -5 -25 -22z"/>
<path d="M1700 32 c0 -17 6 -22 27 -22 14 0 24 1 22 3 -2 1 -14 11 -26 21 -23
19 -23 19 -23 -2z"/>
<path d="M1818 39 c-26 -14 -22 -29 7 -29 18 0 25 5 25 20 0 22 -7 24 -32 9z"/>
<path d="M1900 28 c1 -21 2 -22 14 -5 14 17 32 24 21 8 -3 -5 -1 -12 5 -16 5
-3 10 3 10 14 0 16 -6 21 -25 21 -19 0 -25 -5 -25 -22z"/>
<path d="M2000 28 c1 -21 2 -21 13 -6 12 15 14 15 24 0 11 -15 12 -14 12 6 1
17 -5 22 -24 22 -19 0 -25 -5 -25 -22z"/>
<path d="M2100 28 c1 -21 2 -21 13 -6 12 15 14 15 24 0 11 -15 12 -14 12 6 1
17 -5 22 -24 22 -19 0 -25 -5 -25 -22z"/>
<path d="M2200 28 c1 -21 2 -21 13 -6 12 15 14 15 24 0 11 -15 12 -14 12 6 1
17 -5 22 -24 22 -19 0 -25 -5 -25 -22z"/>
<path d="M2300 28 c1 -21 2 -21 13 -6 12 15 14 15 24 0 11 -15 12 -14 12 6 1
17 -5 22 -24 22 -19 0 -25 -5 -25 -22z"/>
<path d="M2400 28 c1 -21 2 -21 13 -6 12 15 14 15 24 0 11 -15 12 -14 12 6 1
17 -5 22 -24 22 -19 0 -25 -5 -25 -22z"/>
<path d="M2500 28 c1 -21 2 -21 13 -6 12 15 14 15 24 0 11 -15 12 -14 12 6 1
17 -5 22 -24 22 -19 0 -25 -5 -25 -22z"/>
<path d="M2600 28 c1 -21 2 -21 13 -6 12 15 14 15 24 0 11 -15 12 -14 12 6 1
17 -5 22 -24 22 -19 0 -25 -5 -25 -22z"/>
<path d="M2700 28 c1 -21 2 -21 13 -6 12 15 14 15 24 0 11 -15 12 -14 12 6 1
17 -5 22 -24 22 -19 0 -25 -5 -25 -22z"/>
<path d="M2800 28 c1 -21 2 -21 13 -6 12 15 14 15 24 0 11 -15 12 -14 12 6 1
17 -5 22 -24 22 -19 0 -25 -5 -25 -22z"/>
<path d="M2900 28 c1 -21 2 -21 13 -6 12 15 14 15 24 0 11 -15 12 -14 12 6 1
17 -5 22 -24 22 -19 0 -25 -5 -25 -22z" fill="white"/>
</g>
</svg>
